<?xml version="1.0" encoding="UTF-8"?>
<svg xmlns="http://www.w3.org/2000/svg" xmlns:xlink="http://www.w3.org/1999/xlink" width="48px" height="48px" viewBox="0 0 48 47" version="1.1">
<g id="surface1">
<path style=" stroke:none;fill-rule:nonzero;fill:rgb(0%,0%,0%);fill-opacity:1;" d="M 0 23.480469 L 0 46.964844 L 48 46.964844 L 48 0 L 0 0 Z M 43.011719 0.808594 C 44.792969 1.34375 46.105469 2.597656 46.929688 4.605469 L 47.34375 5.617188 L 47.398438 21.824219 C 47.417969 31.730469 47.382812 38.675781 47.269531 39.671875 C 47.023438 41.769531 46.367188 43.167969 45.46875 43.539062 C 44.945312 43.757812 43.574219 43.886719 42.226562 43.851562 C 41.980469 43.832031 41.644531 43.90625 41.457031 44.015625 C 41.042969 44.21875 40.011719 43.960938 40.085938 43.667969 C 40.105469 43.539062 39.882812 43.554688 39.429688 43.757812 C 37.40625 44.605469 37.742188 44.585938 24.054688 44.570312 C 11.851562 44.570312 11.042969 44.53125 10.070312 44.21875 C 9.507812 44.015625 8.867188 43.777344 8.679688 43.667969 C 8.4375 43.539062 8.25 43.539062 8.117188 43.667969 C 7.988281 43.796875 7.761719 43.777344 7.445312 43.628906 C 7.070312 43.464844 6.824219 43.464844 6.488281 43.609375 C 6.242188 43.722656 5.980469 43.757812 5.925781 43.683594 C 5.792969 43.554688 5.476562 43.5 4.40625 43.371094 C 3.992188 43.316406 3.226562 43.132812 2.679688 42.929688 C 2.15625 42.746094 1.667969 42.617188 1.632812 42.671875 C 1.574219 42.707031 1.332031 42.265625 1.085938 41.675781 L 0.65625 40.609375 L 0.601562 23.5 C 0.542969 4.550781 0.507812 5.15625 1.761719 3.242188 C 2.476562 2.15625 3.75 1.179688 4.949219 0.808594 C 6.148438 0.441406 41.773438 0.441406 43.011719 0.808594 Z M 43.011719 0.808594 "/>
<path style=" stroke:none;fill-rule:nonzero;fill:rgb(0%,0%,0%);fill-opacity:1;" d="M 10.179688 2.484375 C 8.867188 2.835938 7.835938 3.371094 6.523438 4.363281 C 5.324219 5.25 4.011719 6.8125 4.292969 6.980469 C 4.386719 7.054688 4.125 7.789062 3.695312 8.636719 L 2.90625 10.183594 L 2.8125 14.164062 C 2.757812 16.355469 2.71875 21.824219 2.738281 26.335938 C 2.757812 34.273438 2.773438 34.570312 3.167969 35.730469 C 4.199219 38.695312 6.355469 41.234375 8.886719 42.46875 L 10.386719 43.1875 L 23.832031 43.242188 L 37.292969 43.28125 L 38.511719 42.835938 C 41.4375 41.75 43.761719 39.339844 44.792969 36.335938 C 45.113281 35.398438 45.1875 34.734375 45.1875 32.800781 L 45.1875 30.40625 L 43.179688 30.332031 L 41.15625 30.277344 L 43.164062 30.242188 L 45.1875 30.203125 L 45.132812 20.109375 L 45.09375 10.039062 L 44.4375 8.746094 C 44.082031 8.03125 43.761719 7.386719 43.726562 7.292969 C 43.667969 7.199219 43.78125 7.183594 43.949219 7.238281 C 44.25 7.347656 44.230469 7.3125 43.929688 6.777344 C 43.351562 5.78125 41.382812 3.976562 40.21875 3.371094 C 37.894531 2.171875 38.382812 2.210938 24.113281 2.226562 C 13.574219 2.226562 10.96875 2.285156 10.179688 2.484375 Z M 40.574219 7.109375 C 41.398438 7.902344 40.40625 9.578125 39.132812 9.578125 C 38.210938 9.578125 37.5 8.839844 37.5 7.902344 C 37.5 7.015625 37.820312 6.832031 39.226562 6.8125 C 39.9375 6.8125 40.386719 6.90625 40.574219 7.109375 Z M 20.230469 7.585938 C 20.382812 7.972656 20.382812 8.230469 20.25 8.359375 C 20.15625 8.453125 20.0625 8.746094 20.042969 9.007812 C 20.023438 9.449219 20.007812 9.429688 19.855469 8.878906 C 19.761719 8.5625 19.59375 8.289062 19.5 8.289062 C 19.257812 8.289062 19.257812 8.066406 19.5 7.476562 C 19.742188 6.832031 19.988281 6.871094 20.230469 7.585938 Z M 10.835938 8.488281 C 10.875 9.023438 10.800781 9.394531 10.648438 9.503906 C 10.519531 9.59375 9.695312 9.613281 8.8125 9.558594 C 7.929688 9.503906 7.332031 9.449219 7.460938 9.429688 C 7.59375 9.410156 7.6875 9.097656 7.6875 8.601562 C 7.6875 8.160156 7.742188 7.734375 7.820312 7.660156 C 7.894531 7.585938 8.585938 7.570312 9.375 7.585938 L 10.78125 7.644531 Z M 28.460938 9.558594 L 28.40625 10.40625 L 24.84375 10.40625 L 24.789062 9.558594 L 24.730469 8.710938 L 26.625 8.710938 L 28.519531 8.730469 Z M 35.023438 8.785156 C 34.539062 8.820312 33.695312 8.820312 33.148438 8.785156 C 32.605469 8.746094 33 8.730469 34.03125 8.730469 C 35.0625 8.730469 35.511719 8.746094 35.023438 8.785156 Z M 31.914062 9.335938 C 31.855469 9.632812 31.78125 9.742188 31.726562 9.613281 C 31.648438 9.375 31.800781 8.839844 31.929688 8.839844 C 31.96875 8.839844 31.96875 9.0625 31.914062 9.335938 Z M 6.414062 10.589844 C 6.375 11.253906 6.28125 11.785156 6.226562 11.785156 C 6.09375 11.785156 6.148438 10.039062 6.28125 9.613281 C 6.429688 9.171875 6.46875 9.410156 6.414062 10.589844 Z M 16.273438 9.523438 C 16.085938 9.558594 15.789062 9.558594 15.617188 9.523438 C 15.429688 9.464844 15.582031 9.429688 15.9375 9.429688 C 16.292969 9.429688 16.445312 9.464844 16.273438 9.523438 Z M 17.773438 9.523438 C 17.585938 9.558594 17.25 9.558594 17.023438 9.523438 C 16.78125 9.484375 16.929688 9.449219 17.34375 9.449219 C 17.757812 9.429688 17.945312 9.464844 17.773438 9.523438 Z M 39.5625 9.945312 C 39.5625 10.039062 39.355469 10.128906 39.113281 10.128906 C 38.851562 10.128906 38.585938 10.039062 38.53125 9.945312 C 38.457031 9.835938 38.664062 9.761719 38.980469 9.761719 C 39.300781 9.761719 39.5625 9.835938 39.5625 9.945312 Z M 34.070312 10.867188 C 34.085938 11.253906 34.085938 11.269531 34.011719 10.921875 C 33.917969 10.570312 33.769531 10.496094 32.886719 10.441406 L 31.875 10.367188 L 32.945312 10.386719 C 33.957031 10.40625 34.03125 10.441406 34.070312 10.867188 Z M 8.757812 12.191406 C 8.71875 12.523438 8.679688 12.265625 8.679688 11.601562 C 8.679688 10.941406 8.71875 10.683594 8.757812 10.996094 C 8.792969 11.328125 8.792969 11.878906 8.757812 12.191406 Z M 26.570312 13.203125 C 26.53125 13.5 26.492188 13.261719 26.492188 12.707031 C 26.492188 12.15625 26.53125 11.914062 26.570312 12.191406 C 26.605469 12.488281 26.605469 12.929688 26.570312 13.203125 Z M 6.710938 14.035156 L 6.65625 15.5625 L 5.34375 15.5625 L 5.289062 14.035156 L 5.230469 12.523438 L 6.769531 12.523438 Z M 40.574219 13.242188 C 40.949219 13.554688 40.96875 14.347656 40.59375 14.476562 C 40.199219 14.621094 39.75 14.21875 39.75 13.703125 C 39.75 13.242188 39.414062 13.148438 37.125 13.003906 C 36.5625 12.964844 37.03125 12.945312 38.175781 12.964844 C 39.617188 12.984375 40.351562 13.058594 40.574219 13.242188 Z M 20.867188 13.832031 C 21.582031 14.199219 25.5 17.753906 25.5 18.066406 C 25.5 18.140625 25.050781 18.675781 24.507812 19.246094 L 23.511719 20.3125 L 21.394531 18.046875 C 18.992188 15.433594 18.710938 15.210938 18.113281 15.359375 C 16.875 15.65625 14.925781 19.0625 14.230469 22.101562 C 13.761719 24.21875 13.648438 27.421875 14.042969 28.308594 C 14.960938 30.460938 18.1875 28.011719 24.695312 20.238281 C 28.707031 15.453125 31.480469 13.738281 34.257812 14.363281 C 36.335938 14.824219 37.3125 16.445312 37.3125 19.503906 C 37.3125 25.066406 34.742188 29.796875 31.96875 29.375 C 31.554688 29.320312 30.824219 29.007812 30.335938 28.710938 C 29.363281 28.085938 27.261719 25.984375 26.511719 24.863281 L 26.023438 24.144531 L 26.90625 22.949219 L 27.804688 21.769531 L 28.648438 22.800781 C 30.09375 24.585938 31.726562 26.132812 32.289062 26.242188 C 32.980469 26.410156 33.675781 25.96875 34.011719 25.15625 C 34.96875 22.910156 35.289062 18.398438 34.59375 17.035156 C 34.386719 16.628906 33.992188 16.1875 33.730469 16.042969 C 33.300781 15.800781 33.167969 15.820312 32.398438 16.171875 C 30.9375 16.871094 29.230469 18.765625 24.917969 24.496094 C 21.429688 29.097656 19.96875 30.5 17.679688 31.308594 C 14.15625 32.5625 11.363281 30.515625 11.117188 26.503906 C 10.914062 23.1875 12.414062 18.195312 14.398438 15.597656 C 16.085938 13.425781 18.617188 12.726562 20.867188 13.832031 Z M 9.804688 14.605469 L 10.78125 14.660156 L 9.710938 14.695312 C 8.699219 14.734375 8.625 14.714844 8.644531 14.308594 C 8.664062 14.015625 8.699219 13.996094 8.757812 14.21875 C 8.8125 14.457031 9.09375 14.550781 9.804688 14.605469 Z M 39.617188 16.574219 C 39.710938 16.925781 39.882812 16.945312 42.300781 16.945312 C 43.707031 16.945312 44.832031 16.980469 44.792969 17.015625 C 44.757812 17.054688 43.40625 17.128906 41.8125 17.144531 C 39.132812 17.203125 38.90625 17.164062 38.851562 16.871094 C 38.8125 16.6875 38.886719 16.464844 39.039062 16.371094 C 39.414062 16.132812 39.507812 16.171875 39.617188 16.574219 Z M 8.492188 17.625 C 7.949219 17.660156 7.050781 17.660156 6.523438 17.625 C 5.980469 17.589844 6.414062 17.570312 7.5 17.570312 C 8.585938 17.570312 9.019531 17.589844 8.492188 17.625 Z M 7.445312 18.378906 C 7.554688 18.453125 6.957031 18.492188 6.132812 18.453125 C 3.769531 18.378906 3.46875 18.289062 5.4375 18.269531 C 6.414062 18.25 7.3125 18.304688 7.445312 18.378906 Z M 9.710938 19.652344 C 9.449219 19.910156 9.335938 19.910156 9.09375 19.707031 C 8.832031 19.484375 8.832031 19.429688 9.132812 19.117188 C 9.414062 18.804688 9.46875 18.804688 9.730469 19.0625 C 9.992188 19.300781 9.992188 19.375 9.710938 19.652344 Z M 41.117188 19.097656 C 40.988281 19.136719 40.726562 19.136719 40.554688 19.097656 C 40.367188 19.042969 40.480469 19.007812 40.78125 19.007812 C 41.101562 19.007812 41.230469 19.042969 41.117188 19.097656 Z M 6.695312 19.722656 C 6.710938 19.945312 6.710938 20.09375 6.695312 20.054688 C 6.65625 20.019531 6.523438 19.835938 6.394531 19.652344 C 6.1875 19.394531 6.1875 19.335938 6.414062 19.335938 C 6.542969 19.335938 6.675781 19.523438 6.695312 19.722656 Z M 7.929688 19.464844 C 7.800781 19.503906 7.539062 19.503906 7.367188 19.464844 C 7.179688 19.410156 7.292969 19.375 7.59375 19.375 C 7.914062 19.375 8.042969 19.410156 7.929688 19.464844 Z M 42.617188 22.414062 C 42.1875 22.449219 41.417969 22.449219 40.929688 22.414062 C 40.445312 22.375 40.800781 22.359375 41.71875 22.359375 C 42.65625 22.359375 43.050781 22.375 42.617188 22.414062 Z M 6.355469 23.648438 C 6.523438 23.832031 6.507812 23.941406 6.28125 24.125 C 5.886719 24.4375 5.324219 24.015625 5.644531 23.648438 C 5.757812 23.5 5.925781 23.390625 6 23.390625 C 6.074219 23.390625 6.242188 23.5 6.355469 23.648438 Z M 40.050781 23.851562 C 40.125 23.996094 40.105469 24.421875 40.050781 24.769531 C 39.9375 25.324219 39.84375 25.414062 39.394531 25.414062 C 38.980469 25.414062 38.832031 25.304688 38.738281 24.953125 C 38.664062 24.695312 38.664062 24.292969 38.738281 24.035156 C 38.832031 23.664062 38.980469 23.574219 39.394531 23.574219 C 39.710938 23.574219 39.992188 23.683594 40.050781 23.851562 Z M 6.84375 24.476562 C 6.898438 24.566406 6.863281 24.714844 6.75 24.769531 C 6.46875 24.9375 5.945312 24.714844 6.09375 24.496094 C 6.242188 24.253906 6.695312 24.253906 6.84375 24.476562 Z M 43.386719 24.789062 C 43.539062 25.15625 43.40625 25.339844 42.9375 25.46875 C 42.617188 25.542969 42.5625 25.46875 42.5625 25.027344 C 42.5625 24.625 42.65625 24.496094 42.917969 24.496094 C 43.105469 24.496094 43.332031 24.625 43.386719 24.789062 Z M 18.132812 25.175781 C 18.207031 25.378906 18.054688 25.65625 17.664062 26.003906 C 17.15625 26.429688 16.894531 26.519531 16.03125 26.519531 L 15 26.519531 L 15 25.820312 C 15 25.433594 15.054688 25.046875 15.132812 24.992188 C 15.1875 24.917969 15.863281 24.863281 16.632812 24.863281 C 17.738281 24.863281 18.039062 24.917969 18.132812 25.175781 Z M 43.554688 28.308594 C 42.804688 28.34375 41.550781 28.34375 40.742188 28.308594 C 39.9375 28.289062 40.554688 28.25 42.09375 28.25 C 43.648438 28.25 44.304688 28.289062 43.554688 28.308594 Z M 7.3125 30.222656 C 7.3125 30.71875 7.257812 30.773438 6.804688 30.71875 C 6.394531 30.683594 6.261719 30.554688 6.226562 30.148438 C 6.167969 29.707031 6.226562 29.652344 6.730469 29.652344 C 7.257812 29.652344 7.3125 29.707031 7.3125 30.222656 Z M 27.335938 30.847656 C 27.039062 31.144531 26.738281 31.179688 24.75 31.105469 C 23.867188 31.085938 23.476562 31.03125 23.867188 30.996094 C 24.355469 30.941406 24.5625 30.828125 24.582031 30.609375 C 24.601562 30.332031 24.617188 30.332031 24.695312 30.609375 C 24.769531 30.867188 24.976562 30.941406 25.78125 30.941406 C 27.09375 30.941406 27.375 30.8125 27.394531 30.222656 C 27.429688 29.761719 27.429688 29.761719 27.507812 30.183594 C 27.5625 30.425781 27.488281 30.71875 27.335938 30.847656 Z M 40.445312 30.3125 C 40.386719 30.371094 40.21875 30.386719 40.085938 30.332031 C 39.9375 30.277344 39.992188 30.222656 40.199219 30.222656 C 40.40625 30.203125 40.519531 30.257812 40.445312 30.3125 Z M 36.28125 33.058594 L 36.28125 34.164062 L 33.46875 34.164062 L 33.414062 33.167969 C 33.375 32.507812 33.429688 32.117188 33.601562 32.007812 C 33.730469 31.933594 34.386719 31.878906 35.0625 31.898438 L 36.28125 31.953125 Z M 23.363281 33.703125 L 23.382812 34.714844 L 23.304688 33.757812 L 23.230469 32.800781 L 22.070312 32.726562 L 20.90625 32.652344 L 23.34375 32.691406 Z M 19.03125 33.242188 C 18.601562 33.390625 17.4375 33.425781 17.4375 33.296875 C 17.4375 33.222656 17.832031 33.152344 18.335938 33.167969 C 18.824219 33.167969 19.144531 33.207031 19.03125 33.242188 Z M 10.3125 35.359375 L 10.3125 36.816406 L 9.695312 36.925781 C 9.355469 37 8.773438 37.019531 8.417969 36.980469 L 7.78125 36.925781 L 7.726562 35.65625 C 7.6875 34.957031 7.707031 34.273438 7.761719 34.125 C 7.835938 33.960938 8.230469 33.886719 9.09375 33.886719 L 10.3125 33.886719 Z M 26.136719 34.035156 C 26.175781 34.109375 26.15625 34.292969 26.0625 34.441406 C 25.929688 34.640625 25.835938 34.660156 25.667969 34.496094 C 25.554688 34.382812 25.519531 34.199219 25.574219 34.089844 C 25.726562 33.851562 26.007812 33.832031 26.136719 34.035156 Z M 40.199219 35.378906 C 41.550781 36.429688 39.976562 38.566406 38.4375 37.753906 C 38.25 37.664062 37.988281 37.292969 37.875 36.945312 C 37.707031 36.429688 37.726562 36.207031 37.949219 35.765625 C 38.398438 34.898438 39.355469 34.734375 40.199219 35.378906 Z M 18.824219 37.257812 C 19.050781 37.421875 19.144531 37.679688 19.085938 38.121094 L 19.03125 38.769531 L 17.398438 38.824219 L 15.75 38.878906 L 15.75 38.066406 C 15.75 37.625 15.804688 37.203125 15.882812 37.148438 C 16.105469 36.925781 18.488281 37.019531 18.824219 37.257812 Z M 33.523438 38.988281 C 33.335938 39.027344 33 39.027344 32.773438 38.988281 C 32.53125 38.953125 32.679688 38.914062 33.09375 38.914062 C 33.507812 38.898438 33.695312 38.933594 33.523438 38.988281 Z M 37.6875 39.613281 C 37.6875 39.871094 37.554688 39.964844 37.144531 39.964844 C 36.542969 39.964844 36.28125 39.726562 36.429688 39.339844 C 36.582031 38.953125 37.6875 39.191406 37.6875 39.613281 Z M 37.6875 39.613281 "/>
<path style=" stroke:none;fill-rule:nonzero;fill:rgb(0%,0%,0%);fill-opacity:1;" d="M 38.625 8.878906 C 38.625 8.96875 38.925781 9.023438 39.28125 9.023438 C 39.636719 9.023438 39.9375 8.96875 39.9375 8.878906 C 39.9375 8.804688 39.636719 8.746094 39.28125 8.746094 C 38.925781 8.746094 38.625 8.804688 38.625 8.878906 Z M 38.625 8.878906 "/>
<path style=" stroke:none;fill-rule:nonzero;fill:rgb(0%,0%,0%);fill-opacity:1;" d="M 8.832031 8.582031 C 8.832031 8.785156 8.886719 8.839844 8.945312 8.691406 C 9 8.5625 8.980469 8.398438 8.925781 8.34375 C 8.867188 8.269531 8.8125 8.378906 8.832031 8.582031 Z M 8.832031 8.582031 "/>
<path style=" stroke:none;fill-rule:nonzero;fill:rgb(0%,0%,0%);fill-opacity:1;" d="M 5.625 14.089844 C 5.625 15.230469 5.644531 15.285156 6.054688 15.285156 C 6.523438 15.285156 6.523438 15.25 6.394531 13.113281 C 6.375 13.003906 6.207031 12.890625 6 12.890625 C 5.664062 12.890625 5.625 13.019531 5.625 14.089844 Z M 6.1875 14.457031 C 6.1875 14.605469 6.113281 14.734375 6 14.734375 C 5.90625 14.734375 5.8125 14.605469 5.8125 14.457031 C 5.8125 14.308594 5.90625 14.179688 6 14.179688 C 6.113281 14.179688 6.1875 14.308594 6.1875 14.457031 Z M 6.1875 14.457031 "/>
<path style=" stroke:none;fill-rule:nonzero;fill:rgb(0%,0%,0%);fill-opacity:1;" d="M 34.03125 32.414062 C 33.957031 32.523438 33.824219 32.5625 33.730469 32.507812 C 33.636719 32.433594 33.5625 32.746094 33.5625 33.207031 L 33.5625 34.015625 L 34.875 34.054688 L 36.1875 34.089844 L 36.1875 32.230469 L 35.175781 32.230469 C 34.613281 32.230469 34.085938 32.320312 34.03125 32.414062 Z M 35.34375 33.335938 C 35.417969 33.335938 35.398438 33.152344 35.34375 32.949219 C 35.25 32.652344 35.289062 32.578125 35.457031 32.636719 C 35.605469 32.691406 35.71875 32.875 35.71875 33.078125 C 35.71875 33.554688 34.929688 33.648438 34.59375 33.207031 C 34.125 32.617188 34.273438 32.320312 34.78125 32.855469 C 35.023438 33.113281 35.289062 33.335938 35.34375 33.335938 Z M 35.34375 33.335938 "/>
<path style=" stroke:none;fill-rule:nonzero;fill:rgb(0%,0%,0%);fill-opacity:1;" d="M 7.875 35.453125 L 7.875 36.648438 L 9.5625 36.648438 L 9.542969 35.398438 C 9.542969 34.714844 9.488281 34.273438 9.429688 34.382812 C 9.320312 34.660156 8.25 34.714844 8.25 34.441406 C 8.25 34.328125 8.175781 34.253906 8.0625 34.253906 C 7.949219 34.253906 7.875 34.769531 7.875 35.453125 Z M 9.1875 34.992188 C 9.1875 35.085938 8.980469 35.175781 8.738281 35.175781 C 8.476562 35.175781 8.210938 35.085938 8.15625 34.992188 C 8.082031 34.882812 8.289062 34.808594 8.605469 34.808594 C 8.925781 34.808594 9.1875 34.882812 9.1875 34.992188 Z M 9.054688 35.488281 C 8.925781 35.527344 8.664062 35.527344 8.492188 35.488281 C 8.304688 35.433594 8.417969 35.398438 8.71875 35.398438 C 9.039062 35.398438 9.167969 35.433594 9.054688 35.488281 Z M 9.09375 36.097656 C 9.039062 36.1875 9.113281 36.300781 9.226562 36.335938 C 9.355469 36.390625 9.1875 36.445312 8.851562 36.445312 C 8.476562 36.464844 8.269531 36.390625 8.34375 36.28125 C 8.398438 36.171875 8.363281 36.097656 8.25 36.097656 C 8.136719 36.097656 8.082031 36.023438 8.136719 35.929688 C 8.195312 35.859375 8.457031 35.820312 8.71875 35.859375 C 8.960938 35.914062 9.148438 36.023438 9.09375 36.097656 Z M 9.09375 36.097656 "/>
</g>
</svg>
