<?xml version="1.0" encoding="UTF-8"?>
<svg xmlns="http://www.w3.org/2000/svg" xmlns:xlink="http://www.w3.org/1999/xlink" width="16px" height="16px" viewBox="0 0 16 15" version="1.1">
<g id="surface1">
<path style=" stroke:none;fill-rule:nonzero;fill:rgb(0%,0%,0%);fill-opacity:1;" d="M 0 7.492188 L 0 14.988281 L 16 14.988281 L 16 0 L 0 0 Z M 14.335938 0.257812 C 14.929688 0.429688 15.367188 0.828125 15.644531 1.46875 L 15.78125 1.792969 L 15.800781 6.964844 C 15.804688 10.128906 15.792969 12.34375 15.757812 12.660156 C 15.675781 13.332031 15.457031 13.777344 15.15625 13.894531 C 14.980469 13.964844 14.523438 14.007812 14.074219 13.996094 C 13.992188 13.988281 13.882812 14.011719 13.820312 14.046875 C 13.679688 14.113281 13.335938 14.03125 13.363281 13.9375 C 13.367188 13.894531 13.292969 13.902344 13.144531 13.964844 C 12.46875 14.234375 12.582031 14.230469 8.019531 14.222656 C 3.949219 14.222656 3.679688 14.210938 3.355469 14.113281 C 3.167969 14.046875 2.957031 13.972656 2.894531 13.9375 C 2.8125 13.894531 2.75 13.894531 2.707031 13.9375 C 2.664062 13.976562 2.585938 13.972656 2.480469 13.925781 C 2.355469 13.871094 2.273438 13.871094 2.164062 13.917969 C 2.082031 13.953125 1.992188 13.964844 1.976562 13.941406 C 1.929688 13.902344 1.824219 13.882812 1.46875 13.84375 C 1.332031 13.824219 1.074219 13.765625 0.894531 13.699219 C 0.71875 13.640625 0.554688 13.601562 0.542969 13.617188 C 0.523438 13.628906 0.445312 13.488281 0.363281 13.300781 L 0.21875 12.960938 L 0.199219 7.5 C 0.179688 1.453125 0.167969 1.644531 0.585938 1.035156 C 0.824219 0.6875 1.25 0.375 1.648438 0.257812 C 2.050781 0.140625 13.925781 0.140625 14.335938 0.257812 Z M 14.335938 0.257812 "/>
<path style=" stroke:none;fill-rule:nonzero;fill:rgb(0%,0%,0%);fill-opacity:1;" d="M 3.394531 0.792969 C 2.957031 0.90625 2.613281 1.074219 2.175781 1.394531 C 1.773438 1.675781 1.335938 2.175781 1.429688 2.226562 C 1.460938 2.25 1.375 2.484375 1.230469 2.757812 L 0.96875 3.25 L 0.9375 4.519531 C 0.917969 5.21875 0.90625 6.964844 0.914062 8.40625 C 0.917969 10.9375 0.925781 11.03125 1.054688 11.402344 C 1.398438 12.347656 2.117188 13.160156 2.960938 13.554688 L 3.460938 13.785156 L 7.945312 13.800781 L 12.429688 13.8125 L 12.835938 13.671875 C 13.8125 13.324219 14.585938 12.554688 14.929688 11.597656 C 15.039062 11.296875 15.0625 11.085938 15.0625 10.46875 L 15.0625 9.703125 L 14.394531 9.679688 L 13.71875 9.664062 L 14.386719 9.652344 L 15.0625 9.640625 L 15.042969 6.417969 L 15.03125 3.203125 L 14.8125 2.792969 C 14.695312 2.5625 14.585938 2.355469 14.574219 2.328125 C 14.554688 2.296875 14.59375 2.292969 14.648438 2.308594 C 14.75 2.34375 14.742188 2.332031 14.644531 2.164062 C 14.449219 1.84375 13.792969 1.269531 13.40625 1.074219 C 12.632812 0.695312 12.792969 0.707031 8.039062 0.710938 C 4.523438 0.710938 3.65625 0.730469 3.394531 0.792969 Z M 13.523438 2.269531 C 13.800781 2.523438 13.46875 3.054688 13.042969 3.054688 C 12.738281 3.054688 12.5 2.820312 12.5 2.523438 C 12.5 2.238281 12.605469 2.179688 13.074219 2.175781 C 13.3125 2.175781 13.460938 2.203125 13.523438 2.269531 Z M 6.742188 2.421875 C 6.792969 2.546875 6.792969 2.628906 6.75 2.667969 C 6.71875 2.699219 6.6875 2.792969 6.679688 2.875 C 6.675781 3.015625 6.667969 3.007812 6.617188 2.832031 C 6.585938 2.734375 6.53125 2.644531 6.5 2.644531 C 6.417969 2.644531 6.417969 2.574219 6.5 2.386719 C 6.582031 2.179688 6.664062 2.191406 6.742188 2.421875 Z M 3.613281 2.710938 C 3.625 2.878906 3.601562 2.996094 3.550781 3.03125 C 3.507812 3.0625 3.230469 3.066406 2.9375 3.050781 C 2.644531 3.03125 2.445312 3.015625 2.488281 3.007812 C 2.53125 3.003906 2.5625 2.902344 2.5625 2.746094 C 2.5625 2.605469 2.582031 2.46875 2.605469 2.445312 C 2.632812 2.421875 2.863281 2.414062 3.125 2.421875 L 3.59375 2.4375 Z M 9.488281 3.050781 L 9.46875 3.320312 L 8.28125 3.320312 L 8.242188 2.78125 L 8.875 2.78125 L 9.507812 2.785156 Z M 11.675781 2.804688 C 11.511719 2.816406 11.230469 2.816406 11.050781 2.804688 C 10.867188 2.792969 11 2.785156 11.34375 2.785156 C 11.6875 2.785156 11.835938 2.792969 11.675781 2.804688 Z M 10.636719 2.980469 C 10.617188 3.074219 10.59375 3.109375 10.574219 3.066406 C 10.550781 2.992188 10.601562 2.820312 10.644531 2.820312 C 10.65625 2.820312 10.65625 2.890625 10.636719 2.980469 Z M 2.136719 3.378906 C 2.125 3.589844 2.09375 3.761719 2.074219 3.761719 C 2.03125 3.761719 2.050781 3.203125 2.09375 3.066406 C 2.144531 2.925781 2.15625 3.003906 2.136719 3.378906 Z M 5.425781 3.039062 C 5.363281 3.050781 5.261719 3.050781 5.207031 3.039062 C 5.144531 3.019531 5.195312 3.007812 5.3125 3.007812 C 5.429688 3.007812 5.480469 3.019531 5.425781 3.039062 Z M 5.925781 3.039062 C 5.863281 3.050781 5.75 3.050781 5.675781 3.039062 C 5.59375 3.027344 5.644531 3.015625 5.78125 3.015625 C 5.917969 3.007812 5.980469 3.019531 5.925781 3.039062 Z M 13.1875 3.175781 C 13.1875 3.203125 13.117188 3.234375 13.039062 3.234375 C 12.949219 3.234375 12.863281 3.203125 12.84375 3.175781 C 12.820312 3.140625 12.886719 3.113281 12.992188 3.113281 C 13.101562 3.113281 13.1875 3.140625 13.1875 3.175781 Z M 11.355469 3.46875 C 11.363281 3.589844 11.363281 3.597656 11.335938 3.484375 C 11.304688 3.375 11.257812 3.351562 10.960938 3.332031 L 10.625 3.308594 L 10.980469 3.316406 C 11.320312 3.320312 11.34375 3.332031 11.355469 3.46875 Z M 2.917969 3.890625 C 2.90625 3.996094 2.894531 3.914062 2.894531 3.703125 C 2.894531 3.492188 2.90625 3.410156 2.917969 3.507812 C 2.929688 3.613281 2.929688 3.792969 2.917969 3.890625 Z M 8.855469 4.214844 C 8.84375 4.308594 8.832031 4.230469 8.832031 4.054688 C 8.832031 3.878906 8.84375 3.804688 8.855469 3.890625 C 8.867188 3.984375 8.867188 4.125 8.855469 4.214844 Z M 2.238281 4.480469 L 2.21875 4.964844 L 1.78125 4.964844 L 1.742188 3.996094 L 2.257812 3.996094 Z M 13.523438 4.226562 C 13.648438 4.324219 13.65625 4.578125 13.53125 4.621094 C 13.398438 4.667969 13.25 4.539062 13.25 4.371094 C 13.25 4.226562 13.136719 4.195312 12.375 4.148438 C 12.1875 4.136719 12.34375 4.132812 12.726562 4.136719 C 13.207031 4.144531 13.449219 4.167969 13.523438 4.226562 Z M 6.957031 4.414062 C 7.195312 4.53125 8.5 5.667969 8.5 5.765625 C 8.5 5.789062 8.351562 5.960938 8.167969 6.140625 L 7.835938 6.484375 L 7.132812 5.761719 C 6.332031 4.925781 6.238281 4.855469 6.039062 4.902344 C 5.625 4.996094 4.976562 6.082031 4.742188 7.054688 C 4.585938 7.730469 4.550781 8.753906 4.679688 9.035156 C 4.988281 9.722656 6.0625 8.941406 8.230469 6.460938 C 9.570312 4.929688 10.492188 4.386719 11.417969 4.585938 C 12.113281 4.730469 12.4375 5.25 12.4375 6.222656 C 12.4375 8 11.582031 9.511719 10.65625 9.375 C 10.519531 9.355469 10.273438 9.257812 10.113281 9.164062 C 9.789062 8.964844 9.085938 8.292969 8.835938 7.933594 L 8.675781 7.707031 L 8.96875 7.324219 L 9.269531 6.949219 L 9.550781 7.277344 C 10.03125 7.847656 10.574219 8.339844 10.761719 8.375 C 10.992188 8.429688 11.226562 8.289062 11.335938 8.027344 C 11.65625 7.3125 11.761719 5.871094 11.53125 5.4375 C 11.460938 5.308594 11.332031 5.167969 11.242188 5.121094 C 11.101562 5.042969 11.054688 5.050781 10.800781 5.160156 C 10.3125 5.382812 9.742188 5.988281 8.304688 7.816406 C 7.144531 9.285156 6.65625 9.734375 5.894531 9.992188 C 4.71875 10.390625 3.789062 9.738281 3.707031 8.457031 C 3.636719 7.398438 4.136719 5.808594 4.800781 4.976562 C 5.363281 4.285156 6.207031 4.0625 6.957031 4.414062 Z M 3.269531 4.660156 L 3.59375 4.679688 L 3.238281 4.691406 C 2.898438 4.703125 2.875 4.695312 2.882812 4.566406 C 2.886719 4.472656 2.898438 4.46875 2.917969 4.539062 C 2.9375 4.613281 3.03125 4.644531 3.269531 4.660156 Z M 13.207031 5.289062 C 13.238281 5.402344 13.292969 5.40625 14.101562 5.40625 C 14.570312 5.40625 14.945312 5.417969 14.929688 5.429688 C 14.917969 5.441406 14.46875 5.464844 13.9375 5.472656 C 13.042969 5.488281 12.96875 5.476562 12.949219 5.382812 C 12.9375 5.324219 12.960938 5.253906 13.011719 5.226562 C 13.136719 5.148438 13.167969 5.160156 13.207031 5.289062 Z M 2.832031 5.625 C 2.648438 5.636719 2.351562 5.636719 2.175781 5.625 C 1.992188 5.613281 2.136719 5.605469 2.5 5.605469 C 2.863281 5.605469 3.007812 5.613281 2.832031 5.625 Z M 2.480469 5.867188 C 2.519531 5.890625 2.320312 5.902344 2.042969 5.890625 C 1.257812 5.867188 1.15625 5.835938 1.8125 5.832031 C 2.136719 5.824219 2.4375 5.84375 2.480469 5.867188 Z M 3.238281 6.273438 C 3.148438 6.355469 3.113281 6.355469 3.03125 6.289062 C 2.945312 6.21875 2.945312 6.199219 3.042969 6.101562 C 3.136719 6 3.15625 6 3.242188 6.082031 C 3.332031 6.160156 3.332031 6.183594 3.238281 6.273438 Z M 13.707031 6.09375 C 13.664062 6.105469 13.574219 6.105469 13.519531 6.09375 C 13.457031 6.078125 13.492188 6.066406 13.59375 6.066406 C 13.699219 6.066406 13.742188 6.078125 13.707031 6.09375 Z M 2.230469 6.296875 C 2.238281 6.367188 2.238281 6.414062 2.230469 6.402344 C 2.21875 6.390625 2.175781 6.332031 2.132812 6.273438 C 2.0625 6.1875 2.0625 6.171875 2.136719 6.171875 C 2.179688 6.171875 2.226562 6.230469 2.230469 6.296875 Z M 2.644531 6.210938 C 2.601562 6.222656 2.511719 6.222656 2.457031 6.210938 C 2.394531 6.195312 2.429688 6.183594 2.53125 6.183594 C 2.636719 6.183594 2.679688 6.195312 2.644531 6.210938 Z M 14.207031 7.152344 C 14.0625 7.164062 13.804688 7.164062 13.644531 7.152344 C 13.480469 7.140625 13.601562 7.136719 13.90625 7.136719 C 14.21875 7.136719 14.351562 7.140625 14.207031 7.152344 Z M 2.117188 7.546875 C 2.175781 7.605469 2.167969 7.640625 2.09375 7.699219 C 1.960938 7.800781 1.773438 7.664062 1.882812 7.546875 C 1.917969 7.5 1.976562 7.464844 2 7.464844 C 2.023438 7.464844 2.082031 7.5 2.117188 7.546875 Z M 13.351562 7.613281 C 13.375 7.660156 13.367188 7.792969 13.351562 7.90625 C 13.3125 8.082031 13.28125 8.109375 13.132812 8.109375 C 12.992188 8.109375 12.945312 8.074219 12.914062 7.964844 C 12.886719 7.882812 12.886719 7.753906 12.914062 7.671875 C 12.945312 7.554688 12.992188 7.523438 13.132812 7.523438 C 13.238281 7.523438 13.332031 7.558594 13.351562 7.613281 Z M 2.28125 7.8125 C 2.300781 7.839844 2.289062 7.886719 2.25 7.90625 C 2.15625 7.957031 1.980469 7.886719 2.03125 7.816406 C 2.082031 7.742188 2.230469 7.742188 2.28125 7.8125 Z M 14.460938 7.910156 C 14.511719 8.027344 14.46875 8.085938 14.3125 8.128906 C 14.207031 8.152344 14.1875 8.128906 14.1875 7.988281 C 14.1875 7.859375 14.21875 7.816406 14.304688 7.816406 C 14.367188 7.816406 14.445312 7.859375 14.460938 7.910156 Z M 6.042969 8.035156 C 6.070312 8.097656 6.019531 8.1875 5.886719 8.300781 C 5.71875 8.433594 5.632812 8.464844 5.34375 8.464844 L 5 8.464844 L 5 8.242188 C 5 8.117188 5.019531 7.992188 5.042969 7.976562 C 5.0625 7.953125 5.289062 7.933594 5.542969 7.933594 C 5.914062 7.933594 6.011719 7.953125 6.042969 8.035156 Z M 14.519531 9.035156 C 14.269531 9.046875 13.851562 9.046875 13.582031 9.035156 C 13.3125 9.027344 13.519531 9.015625 14.03125 9.015625 C 14.550781 9.015625 14.769531 9.027344 14.519531 9.035156 Z M 2.4375 9.644531 C 2.4375 9.804688 2.417969 9.820312 2.269531 9.804688 C 2.132812 9.792969 2.085938 9.75 2.074219 9.621094 C 2.054688 9.480469 2.074219 9.464844 2.242188 9.464844 C 2.417969 9.464844 2.4375 9.480469 2.4375 9.644531 Z M 9.113281 9.84375 C 9.011719 9.9375 8.914062 9.949219 8.25 9.925781 C 7.957031 9.921875 7.824219 9.902344 7.957031 9.890625 C 8.117188 9.875 8.1875 9.839844 8.195312 9.769531 C 8.199219 9.679688 8.207031 9.679688 8.230469 9.769531 C 8.257812 9.851562 8.324219 9.875 8.59375 9.875 C 9.03125 9.875 9.125 9.832031 9.132812 9.644531 C 9.144531 9.5 9.144531 9.5 9.167969 9.632812 C 9.1875 9.710938 9.164062 9.804688 9.113281 9.84375 Z M 13.480469 9.675781 C 13.460938 9.691406 13.40625 9.699219 13.363281 9.679688 C 13.3125 9.664062 13.332031 9.644531 13.398438 9.644531 C 13.46875 9.640625 13.507812 9.65625 13.480469 9.675781 Z M 12.09375 10.550781 L 12.09375 10.902344 L 11.15625 10.902344 L 11.136719 10.585938 C 11.125 10.375 11.144531 10.25 11.199219 10.214844 C 11.242188 10.191406 11.460938 10.175781 11.6875 10.179688 L 12.09375 10.199219 Z M 7.789062 10.757812 L 7.792969 11.078125 L 7.769531 10.773438 L 7.742188 10.46875 L 6.96875 10.421875 L 7.375 10.425781 L 7.78125 10.433594 Z M 6.34375 10.609375 C 6.199219 10.65625 5.8125 10.667969 5.8125 10.628906 C 5.8125 10.601562 5.945312 10.578125 6.113281 10.585938 C 6.273438 10.585938 6.382812 10.597656 6.34375 10.609375 Z M 3.4375 11.285156 L 3.4375 11.75 L 3.230469 11.785156 C 3.117188 11.808594 2.925781 11.8125 2.804688 11.800781 L 2.59375 11.785156 L 2.574219 11.378906 C 2.5625 11.15625 2.570312 10.9375 2.585938 10.890625 C 2.613281 10.839844 2.742188 10.816406 3.03125 10.816406 L 3.4375 10.816406 Z M 8.710938 10.863281 C 8.726562 10.886719 8.71875 10.945312 8.6875 10.992188 C 8.644531 11.054688 8.613281 11.0625 8.554688 11.007812 C 8.519531 10.972656 8.507812 10.914062 8.523438 10.878906 C 8.574219 10.804688 8.667969 10.796875 8.710938 10.863281 Z M 13.398438 11.292969 C 13.851562 11.625 13.324219 12.308594 12.8125 12.050781 C 12.75 12.019531 12.664062 11.902344 12.625 11.789062 C 12.570312 11.625 12.574219 11.554688 12.648438 11.414062 C 12.800781 11.136719 13.117188 11.085938 13.398438 11.292969 Z M 6.273438 11.890625 C 6.351562 11.945312 6.382812 12.027344 6.363281 12.167969 L 6.34375 12.371094 L 5.800781 12.390625 L 5.25 12.40625 L 5.25 12.148438 C 5.25 12.007812 5.269531 11.871094 5.292969 11.855469 C 5.367188 11.785156 6.164062 11.8125 6.273438 11.890625 Z M 11.175781 12.441406 C 11.113281 12.453125 11 12.453125 10.925781 12.441406 C 10.84375 12.429688 10.894531 12.417969 11.03125 12.417969 C 11.167969 12.414062 11.230469 12.425781 11.175781 12.441406 Z M 12.5625 12.644531 C 12.5625 12.726562 12.519531 12.753906 12.382812 12.753906 C 12.179688 12.753906 12.09375 12.679688 12.144531 12.554688 C 12.195312 12.429688 12.5625 12.507812 12.5625 12.644531 Z M 12.5625 12.644531 "/>
<path style=" stroke:none;fill-rule:nonzero;fill:rgb(0%,0%,0%);fill-opacity:1;" d="M 12.875 2.832031 C 12.875 2.863281 12.976562 2.878906 13.09375 2.878906 C 13.210938 2.878906 13.3125 2.863281 13.3125 2.832031 C 13.3125 2.808594 13.210938 2.792969 13.09375 2.792969 C 12.976562 2.792969 12.875 2.808594 12.875 2.832031 Z M 12.875 2.832031 "/>
<path style=" stroke:none;fill-rule:nonzero;fill:rgb(0%,0%,0%);fill-opacity:1;" d="M 2.945312 2.738281 C 2.945312 2.804688 2.960938 2.820312 2.980469 2.773438 C 3 2.734375 2.992188 2.679688 2.976562 2.664062 C 2.957031 2.640625 2.9375 2.675781 2.945312 2.738281 Z M 2.945312 2.738281 "/>
<path style=" stroke:none;fill-rule:nonzero;fill:rgb(0%,0%,0%);fill-opacity:1;" d="M 1.875 4.496094 C 1.875 4.859375 1.882812 4.878906 2.019531 4.878906 C 2.175781 4.878906 2.175781 4.867188 2.132812 4.183594 C 2.125 4.148438 2.070312 4.113281 2 4.113281 C 1.886719 4.113281 1.875 4.15625 1.875 4.496094 Z M 2.0625 4.613281 C 2.0625 4.660156 2.039062 4.703125 2 4.703125 C 1.96875 4.703125 1.9375 4.660156 1.9375 4.613281 C 1.9375 4.566406 1.96875 4.527344 2 4.527344 C 2.039062 4.527344 2.0625 4.566406 2.0625 4.613281 Z M 2.0625 4.613281 "/>
<path style=" stroke:none;fill-rule:nonzero;fill:rgb(0%,0%,0%);fill-opacity:1;" d="M 11.34375 10.34375 C 11.320312 10.378906 11.273438 10.390625 11.242188 10.375 C 11.210938 10.351562 11.1875 10.449219 11.1875 10.597656 L 11.1875 10.855469 L 12.0625 10.878906 L 12.0625 10.285156 L 11.726562 10.285156 C 11.539062 10.285156 11.363281 10.316406 11.34375 10.34375 Z M 11.78125 10.640625 C 11.804688 10.640625 11.800781 10.578125 11.78125 10.515625 C 11.75 10.421875 11.761719 10.398438 11.820312 10.414062 C 11.867188 10.433594 11.90625 10.492188 11.90625 10.554688 C 11.90625 10.710938 11.644531 10.738281 11.53125 10.597656 C 11.375 10.410156 11.425781 10.316406 11.59375 10.484375 C 11.675781 10.566406 11.761719 10.640625 11.78125 10.640625 Z M 11.78125 10.640625 "/>
<path style=" stroke:none;fill-rule:nonzero;fill:rgb(0%,0%,0%);fill-opacity:1;" d="M 2.625 11.316406 L 2.625 11.695312 L 3.1875 11.695312 L 3.179688 11.296875 C 3.179688 11.078125 3.164062 10.9375 3.144531 10.972656 C 3.105469 11.0625 2.75 11.078125 2.75 10.992188 C 2.75 10.957031 2.726562 10.933594 2.6875 10.933594 C 2.648438 10.933594 2.625 11.097656 2.625 11.316406 Z M 3.0625 11.167969 C 3.0625 11.195312 2.992188 11.226562 2.914062 11.226562 C 2.824219 11.226562 2.738281 11.195312 2.71875 11.167969 C 2.695312 11.132812 2.761719 11.109375 2.867188 11.109375 C 2.976562 11.109375 3.0625 11.132812 3.0625 11.167969 Z M 3.019531 11.328125 C 2.976562 11.339844 2.886719 11.339844 2.832031 11.328125 C 2.769531 11.308594 2.804688 11.296875 2.90625 11.296875 C 3.011719 11.296875 3.054688 11.308594 3.019531 11.328125 Z M 3.03125 11.519531 C 3.011719 11.550781 3.039062 11.585938 3.074219 11.597656 C 3.117188 11.613281 3.0625 11.632812 2.949219 11.632812 C 2.824219 11.636719 2.757812 11.613281 2.78125 11.578125 C 2.800781 11.542969 2.789062 11.519531 2.75 11.519531 C 2.710938 11.519531 2.695312 11.496094 2.710938 11.46875 C 2.730469 11.445312 2.820312 11.433594 2.90625 11.445312 C 2.988281 11.460938 3.050781 11.496094 3.03125 11.519531 Z M 3.03125 11.519531 "/>
</g>
</svg>
