<?xml version="1.0" encoding="UTF-8"?>
<svg xmlns="http://www.w3.org/2000/svg" xmlns:xlink="http://www.w3.org/1999/xlink" width="32px" height="32px" viewBox="0 0 32 31" version="1.1">
<g id="surface1">
<path style=" stroke:none;fill-rule:nonzero;fill:rgb(0%,0%,0%);fill-opacity:1;" d="M 0 15.488281 L 0 30.976562 L 32 30.976562 L 32 0 L 0 0 Z M 28.675781 0.535156 C 29.863281 0.886719 30.738281 1.710938 31.289062 3.035156 L 31.5625 3.703125 L 31.601562 14.394531 C 31.613281 20.929688 31.585938 25.507812 31.511719 26.164062 C 31.351562 27.550781 30.914062 28.472656 30.3125 28.714844 C 29.960938 28.863281 29.050781 28.945312 28.148438 28.921875 C 27.988281 28.910156 27.761719 28.960938 27.636719 29.03125 C 27.363281 29.164062 26.675781 28.996094 26.726562 28.800781 C 26.738281 28.714844 26.585938 28.726562 26.289062 28.863281 C 24.9375 29.421875 25.164062 29.410156 16.039062 29.398438 C 7.898438 29.398438 7.363281 29.371094 6.710938 29.164062 C 6.335938 29.03125 5.914062 28.875 5.789062 28.800781 C 5.625 28.714844 5.5 28.714844 5.414062 28.800781 C 5.324219 28.886719 5.175781 28.875 4.960938 28.777344 C 4.710938 28.667969 4.550781 28.667969 4.324219 28.765625 C 4.164062 28.835938 3.988281 28.863281 3.949219 28.8125 C 3.863281 28.726562 3.648438 28.691406 2.9375 28.605469 C 2.664062 28.570312 2.148438 28.449219 1.789062 28.316406 C 1.4375 28.195312 1.113281 28.109375 1.085938 28.144531 C 1.050781 28.167969 0.886719 27.878906 0.726562 27.488281 L 0.4375 26.785156 L 0.398438 15.5 C 0.363281 3 0.335938 3.402344 1.175781 2.136719 C 1.648438 1.421875 2.5 0.777344 3.300781 0.535156 C 4.101562 0.292969 27.851562 0.292969 28.675781 0.535156 Z M 28.675781 0.535156 "/>
<path style=" stroke:none;fill-rule:nonzero;fill:rgb(0%,0%,0%);fill-opacity:1;" d="M 6.789062 1.640625 C 5.914062 1.871094 5.226562 2.222656 4.351562 2.878906 C 3.550781 3.460938 2.675781 4.496094 2.863281 4.605469 C 2.925781 4.652344 2.75 5.136719 2.460938 5.695312 L 1.9375 6.71875 L 1.875 9.339844 C 1.835938 10.785156 1.8125 14.394531 1.824219 17.371094 C 1.835938 22.605469 1.851562 22.800781 2.113281 23.566406 C 2.800781 25.523438 4.238281 27.199219 5.925781 28.011719 L 6.925781 28.484375 L 15.886719 28.523438 L 24.863281 28.546875 L 25.675781 28.253906 C 27.625 27.539062 29.175781 25.945312 29.863281 23.964844 C 30.074219 23.347656 30.125 22.910156 30.125 21.632812 L 30.125 20.054688 L 28.789062 20.007812 L 27.4375 19.96875 L 28.773438 19.945312 L 30.125 19.921875 L 30.085938 13.265625 L 30.0625 6.621094 L 29.625 5.769531 C 29.386719 5.296875 29.175781 4.871094 29.148438 4.808594 C 29.113281 4.75 29.1875 4.738281 29.300781 4.773438 C 29.5 4.847656 29.488281 4.824219 29.289062 4.46875 C 28.898438 3.8125 27.585938 2.625 26.8125 2.222656 C 25.261719 1.433594 25.585938 1.457031 16.074219 1.46875 C 9.050781 1.46875 7.3125 1.507812 6.789062 1.640625 Z M 27.050781 4.6875 C 27.601562 5.210938 26.9375 6.316406 26.085938 6.316406 C 25.476562 6.316406 25 5.832031 25 5.210938 C 25 4.628906 25.210938 4.507812 26.148438 4.496094 C 26.625 4.496094 26.925781 4.554688 27.050781 4.6875 Z M 13.488281 5.003906 C 13.585938 5.261719 13.585938 5.429688 13.5 5.515625 C 13.4375 5.574219 13.375 5.769531 13.363281 5.941406 C 13.351562 6.230469 13.335938 6.21875 13.238281 5.855469 C 13.175781 5.648438 13.0625 5.464844 13 5.464844 C 12.835938 5.464844 12.835938 5.320312 13 4.933594 C 13.164062 4.507812 13.324219 4.53125 13.488281 5.003906 Z M 7.226562 5.601562 C 7.25 5.953125 7.199219 6.195312 7.101562 6.269531 C 7.011719 6.328125 6.460938 6.339844 5.875 6.304688 C 5.289062 6.269531 4.886719 6.230469 4.976562 6.21875 C 5.0625 6.207031 5.125 6 5.125 5.671875 C 5.125 5.382812 5.164062 5.101562 5.210938 5.054688 C 5.261719 5.003906 5.726562 4.992188 6.25 5.003906 L 7.1875 5.042969 Z M 18.976562 6.304688 L 18.9375 6.863281 L 16.5625 6.863281 L 16.523438 6.304688 L 16.488281 5.746094 L 17.75 5.746094 L 19.011719 5.757812 Z M 23.351562 5.792969 C 23.023438 5.820312 22.460938 5.820312 22.101562 5.792969 C 21.738281 5.769531 22 5.757812 22.6875 5.757812 C 23.375 5.757812 23.675781 5.769531 23.351562 5.792969 Z M 21.273438 6.160156 C 21.238281 6.351562 21.1875 6.425781 21.148438 6.339844 C 21.101562 6.183594 21.199219 5.832031 21.289062 5.832031 C 21.3125 5.832031 21.3125 5.976562 21.273438 6.160156 Z M 4.273438 6.984375 C 4.25 7.421875 4.1875 7.773438 4.148438 7.773438 C 4.0625 7.773438 4.101562 6.621094 4.1875 6.339844 C 4.289062 6.050781 4.3125 6.207031 4.273438 6.984375 Z M 10.851562 6.28125 C 10.726562 6.304688 10.523438 6.304688 10.414062 6.28125 C 10.289062 6.242188 10.386719 6.21875 10.625 6.21875 C 10.863281 6.21875 10.960938 6.242188 10.851562 6.28125 Z M 11.851562 6.28125 C 11.726562 6.304688 11.5 6.304688 11.351562 6.28125 C 11.1875 6.257812 11.289062 6.230469 11.5625 6.230469 C 11.835938 6.21875 11.960938 6.242188 11.851562 6.28125 Z M 26.375 6.558594 C 26.375 6.621094 26.238281 6.679688 26.074219 6.679688 C 25.898438 6.679688 25.726562 6.621094 25.6875 6.558594 C 25.636719 6.488281 25.773438 6.4375 25.988281 6.4375 C 26.199219 6.4375 26.375 6.488281 26.375 6.558594 Z M 22.710938 7.167969 C 22.726562 7.421875 22.726562 7.433594 22.675781 7.203125 C 22.613281 6.972656 22.511719 6.925781 21.925781 6.886719 L 21.25 6.839844 L 21.960938 6.851562 C 22.636719 6.863281 22.6875 6.886719 22.710938 7.167969 Z M 5.835938 8.042969 C 5.8125 8.261719 5.789062 8.089844 5.789062 7.652344 C 5.789062 7.214844 5.8125 7.046875 5.835938 7.253906 C 5.863281 7.46875 5.863281 7.835938 5.835938 8.042969 Z M 17.710938 8.710938 C 17.6875 8.902344 17.664062 8.746094 17.664062 8.382812 C 17.664062 8.015625 17.6875 7.859375 17.710938 8.042969 C 17.738281 8.234375 17.738281 8.527344 17.710938 8.710938 Z M 4.476562 9.257812 L 4.4375 10.265625 L 3.5625 10.265625 L 3.523438 9.257812 L 3.488281 8.261719 L 4.511719 8.261719 Z M 27.050781 8.734375 C 27.300781 8.941406 27.3125 9.460938 27.0625 9.546875 C 26.800781 9.644531 26.5 9.378906 26.5 9.039062 C 26.5 8.734375 26.273438 8.671875 24.75 8.574219 C 24.375 8.550781 24.6875 8.539062 25.449219 8.550781 C 26.414062 8.5625 26.898438 8.613281 27.050781 8.734375 Z M 13.914062 9.121094 C 14.386719 9.367188 17 11.710938 17 11.917969 C 17 11.964844 16.699219 12.316406 16.335938 12.695312 L 15.675781 13.398438 L 14.261719 11.90625 C 12.664062 10.179688 12.476562 10.035156 12.074219 10.132812 C 11.25 10.324219 9.949219 12.574219 9.488281 14.578125 C 9.175781 15.972656 9.101562 18.085938 9.363281 18.671875 C 9.976562 20.089844 12.125 18.476562 16.460938 13.351562 C 19.136719 10.191406 20.988281 9.0625 22.835938 9.476562 C 24.226562 9.777344 24.875 10.847656 24.875 12.863281 C 24.875 16.53125 23.164062 19.65625 21.3125 19.375 C 21.039062 19.339844 20.550781 19.132812 20.226562 18.9375 C 19.574219 18.523438 18.175781 17.140625 17.675781 16.398438 L 17.351562 15.925781 L 17.9375 15.136719 L 18.539062 14.359375 L 19.101562 15.039062 C 20.0625 16.214844 21.148438 17.238281 21.523438 17.308594 C 21.988281 17.417969 22.449219 17.128906 22.675781 16.59375 C 23.3125 15.109375 23.523438 12.136719 23.0625 11.234375 C 22.925781 10.96875 22.664062 10.675781 22.488281 10.582031 C 22.199219 10.421875 22.113281 10.433594 21.601562 10.664062 C 20.625 11.128906 19.488281 12.378906 16.613281 16.15625 C 14.289062 19.191406 13.3125 20.117188 11.789062 20.652344 C 9.4375 21.476562 7.574219 20.128906 7.414062 17.480469 C 7.273438 15.292969 8.273438 12 9.601562 10.289062 C 10.726562 8.855469 12.414062 8.394531 13.914062 9.121094 Z M 6.539062 9.632812 L 7.1875 9.667969 L 6.476562 9.695312 C 5.800781 9.71875 5.75 9.707031 5.761719 9.4375 C 5.773438 9.242188 5.800781 9.230469 5.835938 9.378906 C 5.875 9.535156 6.0625 9.597656 6.539062 9.632812 Z M 26.414062 10.933594 C 26.476562 11.164062 26.585938 11.175781 28.199219 11.175781 C 29.136719 11.175781 29.886719 11.199219 29.863281 11.222656 C 29.835938 11.25 28.9375 11.296875 27.875 11.308594 C 26.085938 11.34375 25.9375 11.320312 25.898438 11.128906 C 25.875 11.003906 25.925781 10.859375 26.023438 10.800781 C 26.273438 10.640625 26.335938 10.664062 26.414062 10.933594 Z M 5.664062 11.625 C 5.300781 11.648438 4.699219 11.648438 4.351562 11.625 C 3.988281 11.601562 4.273438 11.589844 5 11.589844 C 5.726562 11.589844 6.011719 11.601562 5.664062 11.625 Z M 4.960938 12.121094 C 5.039062 12.171875 4.636719 12.195312 4.085938 12.171875 C 2.511719 12.121094 2.3125 12.0625 3.625 12.050781 C 4.273438 12.039062 4.875 12.074219 4.960938 12.121094 Z M 6.476562 12.960938 C 6.300781 13.132812 6.226562 13.132812 6.0625 12.996094 C 5.886719 12.851562 5.886719 12.816406 6.085938 12.609375 C 6.273438 12.402344 6.3125 12.402344 6.488281 12.574219 C 6.664062 12.730469 6.664062 12.777344 6.476562 12.960938 Z M 27.414062 12.597656 C 27.324219 12.621094 27.148438 12.621094 27.039062 12.597656 C 26.914062 12.558594 26.988281 12.535156 27.1875 12.535156 C 27.398438 12.535156 27.488281 12.558594 27.414062 12.597656 Z M 4.460938 13.011719 C 4.476562 13.15625 4.476562 13.253906 4.460938 13.226562 C 4.4375 13.203125 4.351562 13.082031 4.261719 12.960938 C 4.125 12.792969 4.125 12.753906 4.273438 12.753906 C 4.363281 12.753906 4.449219 12.875 4.460938 13.011719 Z M 5.289062 12.839844 C 5.199219 12.863281 5.023438 12.863281 4.914062 12.839844 C 4.789062 12.804688 4.863281 12.777344 5.0625 12.777344 C 5.273438 12.777344 5.363281 12.804688 5.289062 12.839844 Z M 28.414062 14.785156 C 28.125 14.808594 27.613281 14.808594 27.289062 14.785156 C 26.960938 14.757812 27.199219 14.746094 27.8125 14.746094 C 28.4375 14.746094 28.699219 14.757812 28.414062 14.785156 Z M 4.238281 15.597656 C 4.351562 15.71875 4.335938 15.792969 4.1875 15.914062 C 3.925781 16.121094 3.550781 15.839844 3.761719 15.597656 C 3.835938 15.5 3.949219 15.425781 4 15.425781 C 4.050781 15.425781 4.164062 15.5 4.238281 15.597656 Z M 26.699219 15.730469 C 26.75 15.828125 26.738281 16.105469 26.699219 16.339844 C 26.625 16.703125 26.5625 16.761719 26.261719 16.761719 C 25.988281 16.761719 25.886719 16.691406 25.824219 16.460938 C 25.773438 16.289062 25.773438 16.023438 25.824219 15.851562 C 25.886719 15.609375 25.988281 15.546875 26.261719 15.546875 C 26.476562 15.546875 26.664062 15.621094 26.699219 15.730469 Z M 4.5625 16.144531 C 4.601562 16.203125 4.574219 16.300781 4.5 16.339844 C 4.3125 16.449219 3.960938 16.300781 4.0625 16.15625 C 4.164062 15.996094 4.460938 15.996094 4.5625 16.144531 Z M 28.925781 16.351562 C 29.023438 16.59375 28.9375 16.714844 28.625 16.800781 C 28.414062 16.847656 28.375 16.800781 28.375 16.507812 C 28.375 16.242188 28.4375 16.15625 28.613281 16.15625 C 28.738281 16.15625 28.886719 16.242188 28.925781 16.351562 Z M 12.085938 16.605469 C 12.136719 16.738281 12.039062 16.921875 11.773438 17.152344 C 11.4375 17.429688 11.261719 17.492188 10.6875 17.492188 L 10 17.492188 L 10 17.03125 C 10 16.777344 10.039062 16.519531 10.085938 16.484375 C 10.125 16.433594 10.574219 16.398438 11.085938 16.398438 C 11.824219 16.398438 12.023438 16.433594 12.085938 16.605469 Z M 29.039062 18.671875 C 28.539062 18.695312 27.699219 18.695312 27.164062 18.671875 C 26.625 18.660156 27.039062 18.632812 28.0625 18.632812 C 29.101562 18.632812 29.539062 18.660156 29.039062 18.671875 Z M 4.875 19.933594 C 4.875 20.261719 4.835938 20.296875 4.539062 20.261719 C 4.261719 20.238281 4.175781 20.152344 4.148438 19.886719 C 4.113281 19.59375 4.148438 19.558594 4.488281 19.558594 C 4.835938 19.558594 4.875 19.59375 4.875 19.933594 Z M 18.226562 20.347656 C 18.023438 20.542969 17.824219 20.566406 16.5 20.515625 C 15.914062 20.503906 15.648438 20.46875 15.914062 20.445312 C 16.238281 20.40625 16.375 20.335938 16.386719 20.1875 C 16.398438 20.007812 16.414062 20.007812 16.460938 20.1875 C 16.511719 20.359375 16.648438 20.40625 17.1875 20.40625 C 18.0625 20.40625 18.25 20.324219 18.261719 19.933594 C 18.289062 19.628906 18.289062 19.628906 18.335938 19.910156 C 18.375 20.066406 18.324219 20.261719 18.226562 20.347656 Z M 26.960938 19.996094 C 26.925781 20.03125 26.8125 20.042969 26.726562 20.007812 C 26.625 19.96875 26.664062 19.933594 26.800781 19.933594 C 26.9375 19.921875 27.011719 19.957031 26.960938 19.996094 Z M 24.1875 21.804688 L 24.1875 22.535156 L 22.3125 22.535156 L 22.273438 21.878906 C 22.25 21.441406 22.289062 21.183594 22.398438 21.113281 C 22.488281 21.0625 22.925781 21.027344 23.375 21.039062 L 24.1875 21.074219 Z M 15.574219 22.230469 L 15.585938 22.898438 L 15.539062 22.265625 L 15.488281 21.632812 L 14.710938 21.585938 L 13.9375 21.539062 L 15.5625 21.5625 Z M 12.6875 21.925781 C 12.398438 22.023438 11.625 22.046875 11.625 21.960938 C 11.625 21.914062 11.886719 21.863281 12.226562 21.878906 C 12.550781 21.878906 12.761719 21.902344 12.6875 21.925781 Z M 6.875 23.324219 L 6.875 24.28125 L 6.460938 24.355469 C 6.238281 24.402344 5.851562 24.417969 5.613281 24.390625 L 5.1875 24.355469 L 5.148438 23.515625 C 5.125 23.054688 5.136719 22.605469 5.175781 22.507812 C 5.226562 22.398438 5.488281 22.351562 6.0625 22.351562 L 6.875 22.351562 Z M 17.425781 22.449219 C 17.449219 22.496094 17.4375 22.617188 17.375 22.714844 C 17.289062 22.847656 17.226562 22.859375 17.113281 22.753906 C 17.039062 22.679688 17.011719 22.558594 17.050781 22.484375 C 17.148438 22.328125 17.335938 22.316406 17.425781 22.449219 Z M 26.800781 23.335938 C 27.699219 24.027344 26.648438 25.4375 25.625 24.902344 C 25.5 24.839844 25.324219 24.597656 25.25 24.367188 C 25.136719 24.027344 25.148438 23.882812 25.300781 23.589844 C 25.601562 23.019531 26.238281 22.910156 26.800781 23.335938 Z M 12.550781 24.574219 C 12.699219 24.683594 12.761719 24.851562 12.726562 25.144531 L 12.6875 25.570312 L 11.601562 25.605469 L 10.5 25.644531 L 10.5 25.109375 C 10.5 24.816406 10.539062 24.539062 10.585938 24.5 C 10.738281 24.355469 12.324219 24.417969 12.550781 24.574219 Z M 22.351562 25.714844 C 22.226562 25.738281 22 25.738281 21.851562 25.714844 C 21.6875 25.691406 21.789062 25.667969 22.0625 25.667969 C 22.335938 25.65625 22.460938 25.679688 22.351562 25.714844 Z M 25.125 26.128906 C 25.125 26.300781 25.039062 26.359375 24.761719 26.359375 C 24.363281 26.359375 24.1875 26.203125 24.289062 25.945312 C 24.386719 25.691406 25.125 25.847656 25.125 26.128906 Z M 25.125 26.128906 "/>
<path style=" stroke:none;fill-rule:nonzero;fill:rgb(0%,0%,0%);fill-opacity:1;" d="M 25.75 5.855469 C 25.75 5.914062 25.949219 5.953125 26.1875 5.953125 C 26.425781 5.953125 26.625 5.914062 26.625 5.855469 C 26.625 5.804688 26.425781 5.769531 26.1875 5.769531 C 25.949219 5.769531 25.75 5.804688 25.75 5.855469 Z M 25.75 5.855469 "/>
<path style=" stroke:none;fill-rule:nonzero;fill:rgb(0%,0%,0%);fill-opacity:1;" d="M 5.886719 5.660156 C 5.886719 5.792969 5.925781 5.832031 5.960938 5.734375 C 6 5.648438 5.988281 5.539062 5.949219 5.503906 C 5.914062 5.453125 5.875 5.527344 5.886719 5.660156 Z M 5.886719 5.660156 "/>
<path style=" stroke:none;fill-rule:nonzero;fill:rgb(0%,0%,0%);fill-opacity:1;" d="M 3.75 9.292969 C 3.75 10.046875 3.761719 10.082031 4.039062 10.082031 C 4.351562 10.082031 4.351562 10.058594 4.261719 8.648438 C 4.25 8.574219 4.136719 8.503906 4 8.503906 C 3.773438 8.503906 3.75 8.589844 3.75 9.292969 Z M 4.125 9.535156 C 4.125 9.632812 4.074219 9.71875 4 9.71875 C 3.9375 9.71875 3.875 9.632812 3.875 9.535156 C 3.875 9.4375 3.9375 9.351562 4 9.351562 C 4.074219 9.351562 4.125 9.4375 4.125 9.535156 Z M 4.125 9.535156 "/>
<path style=" stroke:none;fill-rule:nonzero;fill:rgb(0%,0%,0%);fill-opacity:1;" d="M 22.6875 21.378906 C 22.636719 21.453125 22.550781 21.476562 22.488281 21.441406 C 22.425781 21.390625 22.375 21.597656 22.375 21.902344 L 22.375 22.4375 L 24.125 22.484375 L 24.125 21.257812 L 23.449219 21.257812 C 23.074219 21.257812 22.726562 21.320312 22.6875 21.378906 Z M 23.5625 21.988281 C 23.613281 21.988281 23.601562 21.863281 23.5625 21.730469 C 23.5 21.539062 23.523438 21.488281 23.636719 21.523438 C 23.738281 21.5625 23.8125 21.683594 23.8125 21.816406 C 23.8125 22.132812 23.289062 22.191406 23.0625 21.902344 C 22.75 21.511719 22.851562 21.320312 23.1875 21.671875 C 23.351562 21.839844 23.523438 21.988281 23.5625 21.988281 Z M 23.5625 21.988281 "/>
<path style=" stroke:none;fill-rule:nonzero;fill:rgb(0%,0%,0%);fill-opacity:1;" d="M 5.25 23.382812 L 5.25 24.171875 L 6.375 24.171875 L 6.363281 23.347656 C 6.363281 22.898438 6.324219 22.605469 6.289062 22.679688 C 6.210938 22.859375 5.5 22.898438 5.5 22.714844 C 5.5 22.644531 5.449219 22.59375 5.375 22.59375 C 5.300781 22.59375 5.25 22.933594 5.25 23.382812 Z M 6.125 23.078125 C 6.125 23.140625 5.988281 23.203125 5.824219 23.203125 C 5.648438 23.203125 5.476562 23.140625 5.4375 23.078125 C 5.386719 23.007812 5.523438 22.957031 5.738281 22.957031 C 5.949219 22.957031 6.125 23.007812 6.125 23.078125 Z M 6.039062 23.40625 C 5.949219 23.433594 5.773438 23.433594 5.664062 23.40625 C 5.539062 23.371094 5.613281 23.347656 5.8125 23.347656 C 6.023438 23.347656 6.113281 23.371094 6.039062 23.40625 Z M 6.0625 23.808594 C 6.023438 23.871094 6.074219 23.941406 6.148438 23.964844 C 6.238281 24.003906 6.125 24.039062 5.898438 24.039062 C 5.648438 24.050781 5.511719 24.003906 5.5625 23.929688 C 5.601562 23.855469 5.574219 23.808594 5.5 23.808594 C 5.425781 23.808594 5.386719 23.761719 5.425781 23.699219 C 5.460938 23.652344 5.636719 23.625 5.8125 23.652344 C 5.976562 23.6875 6.101562 23.761719 6.0625 23.808594 Z M 6.0625 23.808594 "/>
</g>
</svg>
