<?xml version="1.0" encoding="UTF-8"?>
<svg xmlns="http://www.w3.org/2000/svg" xmlns:xlink="http://www.w3.org/1999/xlink" width="128px" height="128px" viewBox="0 0 128 127" version="1.1">
<g id="surface1">
<path style=" stroke:none;fill-rule:nonzero;fill:rgb(0%,0%,0%);fill-opacity:1;" d="M 0 63.449219 L 0 126.902344 L 128 126.902344 L 128 0 L 0 0 Z M 114.699219 2.191406 C 119.449219 3.632812 122.949219 7.015625 125.148438 12.441406 L 126.25 15.179688 L 126.398438 58.972656 C 126.449219 85.746094 126.351562 104.507812 126.050781 107.195312 C 125.398438 112.867188 123.648438 116.648438 121.25 117.644531 C 119.851562 118.242188 116.199219 118.589844 112.601562 118.488281 C 111.949219 118.441406 111.050781 118.640625 110.550781 118.9375 C 109.449219 119.484375 106.699219 118.789062 106.898438 117.992188 C 106.949219 117.644531 106.351562 117.695312 105.148438 118.242188 C 99.75 120.53125 100.648438 120.480469 64.148438 120.429688 C 31.601562 120.429688 29.449219 120.332031 26.851562 119.484375 C 25.351562 118.9375 23.648438 118.292969 23.148438 117.992188 C 22.5 117.644531 22 117.644531 21.648438 117.992188 C 21.300781 118.339844 20.699219 118.292969 19.851562 117.894531 C 18.851562 117.445312 18.199219 117.445312 17.300781 117.84375 C 16.648438 118.140625 15.949219 118.242188 15.800781 118.042969 C 15.449219 117.695312 14.601562 117.542969 11.75 117.195312 C 10.648438 117.046875 8.601562 116.550781 7.148438 116.003906 C 5.75 115.503906 4.449219 115.15625 4.351562 115.304688 C 4.199219 115.40625 3.550781 114.210938 2.898438 112.617188 L 1.75 109.730469 L 1.601562 63.5 C 1.449219 12.292969 1.351562 13.933594 4.699219 8.757812 C 6.601562 5.824219 10 3.183594 13.199219 2.191406 C 16.398438 1.195312 111.398438 1.195312 114.699219 2.191406 Z M 114.699219 2.191406 "/>
<path style=" stroke:none;fill-rule:nonzero;fill:rgb(0%,0%,0%);fill-opacity:1;" d="M 27.148438 6.71875 C 23.648438 7.664062 20.898438 9.105469 17.398438 11.792969 C 14.199219 14.183594 10.699219 18.414062 11.449219 18.859375 C 11.699219 19.058594 11 21.050781 9.851562 23.339844 L 7.75 27.519531 L 7.5 38.269531 C 7.351562 44.191406 7.25 58.972656 7.300781 71.164062 C 7.351562 92.613281 7.398438 93.410156 8.449219 96.542969 C 11.199219 104.554688 16.949219 111.421875 23.699219 114.757812 L 27.699219 116.699219 L 63.550781 116.847656 L 99.449219 116.949219 L 102.699219 115.753906 C 110.5 112.816406 116.699219 106.296875 119.449219 98.1875 C 120.300781 95.648438 120.5 93.855469 120.5 88.632812 L 120.5 82.160156 L 115.148438 81.960938 L 109.75 81.8125 L 115.101562 81.714844 L 120.5 81.613281 L 120.351562 54.34375 L 120.25 27.121094 L 118.5 23.636719 C 117.550781 21.699219 116.699219 19.957031 116.601562 19.707031 C 116.449219 19.457031 116.75 19.410156 117.199219 19.558594 C 118 19.855469 117.949219 19.757812 117.148438 18.3125 C 115.601562 15.625 110.351562 10.75 107.25 9.105469 C 101.050781 5.871094 102.351562 5.972656 64.300781 6.023438 C 36.199219 6.023438 29.25 6.171875 27.148438 6.71875 Z M 108.199219 19.210938 C 110.398438 21.347656 107.75 25.878906 104.351562 25.878906 C 101.898438 25.878906 100 23.886719 100 21.347656 C 100 18.960938 100.851562 18.460938 104.601562 18.414062 C 106.5 18.414062 107.699219 18.660156 108.199219 19.210938 Z M 53.949219 20.503906 C 54.351562 21.546875 54.351562 22.246094 54 22.59375 C 53.75 22.84375 53.5 23.636719 53.449219 24.335938 C 53.398438 25.53125 53.351562 25.480469 52.949219 23.988281 C 52.699219 23.140625 52.25 22.394531 52 22.394531 C 51.351562 22.394531 51.351562 21.796875 52 20.203125 C 52.648438 18.460938 53.300781 18.5625 53.949219 20.503906 Z M 28.898438 22.941406 C 29 24.386719 28.800781 25.378906 28.398438 25.679688 C 28.050781 25.925781 25.851562 25.976562 23.5 25.828125 C 21.148438 25.679688 19.550781 25.53125 19.898438 25.480469 C 20.25 25.429688 20.5 24.582031 20.5 23.238281 C 20.5 22.046875 20.648438 20.902344 20.851562 20.703125 C 21.050781 20.503906 22.898438 20.453125 25 20.503906 L 28.75 20.652344 Z M 75.898438 25.828125 L 75.75 28.117188 L 66.25 28.117188 L 66.101562 25.828125 L 65.949219 23.539062 L 71 23.539062 L 76.050781 23.589844 Z M 93.398438 23.738281 C 92.101562 23.835938 89.851562 23.835938 88.398438 23.738281 C 86.949219 23.636719 88 23.589844 90.75 23.589844 C 93.5 23.589844 94.699219 23.636719 93.398438 23.738281 Z M 85.101562 25.230469 C 84.949219 26.027344 84.75 26.324219 84.601562 25.976562 C 84.398438 25.332031 84.800781 23.886719 85.148438 23.886719 C 85.25 23.886719 85.25 24.484375 85.101562 25.230469 Z M 17.101562 28.613281 C 17 30.40625 16.75 31.847656 16.601562 31.847656 C 16.25 31.847656 16.398438 27.121094 16.75 25.976562 C 17.148438 24.78125 17.25 25.429688 17.101562 28.613281 Z M 43.398438 25.726562 C 42.898438 25.828125 42.101562 25.828125 41.648438 25.726562 C 41.148438 25.578125 41.550781 25.480469 42.5 25.480469 C 43.449219 25.480469 43.851562 25.578125 43.398438 25.726562 Z M 47.398438 25.726562 C 46.898438 25.828125 46 25.828125 45.398438 25.726562 C 44.75 25.628906 45.148438 25.53125 46.25 25.53125 C 47.351562 25.480469 47.851562 25.578125 47.398438 25.726562 Z M 105.5 26.871094 C 105.5 27.121094 104.949219 27.371094 104.300781 27.371094 C 103.601562 27.371094 102.898438 27.121094 102.75 26.871094 C 102.550781 26.574219 103.101562 26.375 103.949219 26.375 C 104.800781 26.375 105.5 26.574219 105.5 26.871094 Z M 90.851562 29.359375 C 90.898438 30.40625 90.898438 30.457031 90.699219 29.511719 C 90.449219 28.566406 90.050781 28.367188 87.699219 28.214844 L 85 28.019531 L 87.851562 28.066406 C 90.550781 28.117188 90.75 28.214844 90.851562 29.359375 Z M 23.351562 32.945312 C 23.25 33.839844 23.148438 33.144531 23.148438 31.351562 C 23.148438 29.558594 23.25 28.863281 23.351562 29.710938 C 23.449219 30.605469 23.449219 32.097656 23.351562 32.945312 Z M 70.851562 35.679688 C 70.75 36.476562 70.648438 35.832031 70.648438 34.335938 C 70.648438 32.84375 70.75 32.199219 70.851562 32.945312 C 70.949219 33.742188 70.949219 34.933594 70.851562 35.679688 Z M 17.898438 37.921875 L 17.75 42.050781 L 14.25 42.050781 L 14.101562 37.921875 L 13.949219 33.839844 L 18.050781 33.839844 Z M 108.199219 35.78125 C 109.199219 36.628906 109.25 38.765625 108.25 39.113281 C 107.199219 39.511719 106 38.417969 106 37.023438 C 106 35.78125 105.101562 35.53125 99 35.132812 C 97.5 35.035156 98.75 34.984375 101.800781 35.035156 C 105.648438 35.085938 107.601562 35.285156 108.199219 35.78125 Z M 55.648438 37.375 C 57.550781 38.367188 68 47.972656 68 48.820312 C 68 49.019531 66.800781 50.460938 65.351562 52.003906 L 62.699219 54.890625 L 57.050781 48.769531 C 50.648438 41.703125 49.898438 41.105469 48.300781 41.503906 C 45 42.300781 39.800781 51.507812 37.949219 59.71875 C 36.699219 65.441406 36.398438 74.101562 37.449219 76.488281 C 39.898438 82.3125 48.5 75.691406 65.851562 54.691406 C 76.550781 41.753906 83.949219 37.125 91.351562 38.816406 C 96.898438 40.0625 99.5 44.441406 99.5 52.699219 C 99.5 67.730469 92.648438 80.519531 85.25 79.375 C 84.148438 79.226562 82.199219 78.378906 80.898438 77.582031 C 78.300781 75.890625 72.699219 70.21875 70.699219 67.183594 L 69.398438 65.242188 L 71.75 62.007812 L 74.148438 58.820312 L 76.398438 61.609375 C 80.25 66.4375 84.601562 70.617188 86.101562 70.914062 C 87.949219 71.363281 89.800781 70.167969 90.699219 67.980469 C 93.25 61.90625 94.101562 49.714844 92.25 46.03125 C 91.699219 44.9375 90.648438 43.742188 89.949219 43.34375 C 88.800781 42.699219 88.449219 42.746094 86.398438 43.695312 C 82.5 45.585938 77.949219 50.710938 66.449219 66.1875 C 57.148438 78.628906 53.25 82.410156 47.148438 84.601562 C 37.75 87.984375 30.300781 82.460938 29.648438 71.613281 C 29.101562 62.652344 33.101562 49.167969 38.398438 42.152344 C 42.898438 36.277344 49.648438 34.386719 55.648438 37.375 Z M 26.148438 39.464844 L 28.75 39.613281 L 25.898438 39.710938 C 23.199219 39.8125 23 39.761719 23.050781 38.667969 C 23.101562 37.871094 23.199219 37.820312 23.351562 38.417969 C 23.5 39.066406 24.25 39.3125 26.148438 39.464844 Z M 105.648438 44.789062 C 105.898438 45.734375 106.351562 45.785156 112.800781 45.785156 C 116.550781 45.785156 119.550781 45.882812 119.449219 45.984375 C 119.351562 46.082031 115.75 46.28125 111.5 46.332031 C 104.351562 46.480469 103.75 46.382812 103.601562 45.585938 C 103.5 45.085938 103.699219 44.488281 104.101562 44.242188 C 105.101562 43.59375 105.351562 43.695312 105.648438 44.789062 Z M 22.648438 47.625 C 21.199219 47.722656 18.800781 47.722656 17.398438 47.625 C 15.949219 47.527344 17.101562 47.476562 20 47.476562 C 22.898438 47.476562 24.050781 47.527344 22.648438 47.625 Z M 19.851562 49.664062 C 20.148438 49.863281 18.550781 49.964844 16.351562 49.863281 C 10.050781 49.664062 9.25 49.417969 14.5 49.367188 C 17.101562 49.316406 19.5 49.464844 19.851562 49.664062 Z M 25.898438 53.097656 C 25.199219 53.796875 24.898438 53.796875 24.25 53.25 C 23.550781 52.652344 23.550781 52.503906 24.351562 51.65625 C 25.101562 50.808594 25.25 50.808594 25.949219 51.507812 C 26.648438 52.152344 26.648438 52.351562 25.898438 53.097656 Z M 109.648438 51.605469 C 109.300781 51.707031 108.601562 51.707031 108.148438 51.605469 C 107.648438 51.457031 107.949219 51.355469 108.75 51.355469 C 109.601562 51.355469 109.949219 51.457031 109.648438 51.605469 Z M 17.851562 53.296875 C 17.898438 53.894531 17.898438 54.292969 17.851562 54.195312 C 17.75 54.09375 17.398438 53.597656 17.050781 53.097656 C 16.5 52.402344 16.5 52.253906 17.101562 52.253906 C 17.449219 52.253906 17.800781 52.75 17.851562 53.296875 Z M 21.148438 52.601562 C 20.800781 52.699219 20.101562 52.699219 19.648438 52.601562 C 19.148438 52.453125 19.449219 52.351562 20.25 52.351562 C 21.101562 52.351562 21.449219 52.453125 21.148438 52.601562 Z M 113.648438 60.5625 C 112.5 60.664062 110.449219 60.664062 109.148438 60.5625 C 107.851562 60.464844 108.800781 60.414062 111.25 60.414062 C 113.75 60.414062 114.800781 60.464844 113.648438 60.5625 Z M 16.949219 63.898438 C 17.398438 64.394531 17.351562 64.695312 16.75 65.191406 C 15.699219 66.039062 14.199219 64.894531 15.050781 63.898438 C 15.351562 63.5 15.800781 63.203125 16 63.203125 C 16.199219 63.203125 16.648438 63.5 16.949219 63.898438 Z M 106.800781 64.445312 C 107 64.84375 106.949219 65.988281 106.800781 66.933594 C 106.5 68.425781 106.25 68.675781 105.050781 68.675781 C 103.949219 68.675781 103.550781 68.378906 103.300781 67.429688 C 103.101562 66.734375 103.101562 65.640625 103.300781 64.941406 C 103.550781 63.949219 103.949219 63.699219 105.050781 63.699219 C 105.898438 63.699219 106.648438 63.996094 106.800781 64.445312 Z M 18.25 66.136719 C 18.398438 66.386719 18.300781 66.785156 18 66.933594 C 17.25 67.382812 15.851562 66.785156 16.25 66.1875 C 16.648438 65.539062 17.851562 65.539062 18.25 66.136719 Z M 115.699219 66.984375 C 116.101562 67.980469 115.75 68.476562 114.5 68.824219 C 113.648438 69.023438 113.5 68.824219 113.5 67.628906 C 113.5 66.535156 113.75 66.1875 114.449219 66.1875 C 114.949219 66.1875 115.550781 66.535156 115.699219 66.984375 Z M 48.351562 68.027344 C 48.550781 68.574219 48.148438 69.324219 47.101562 70.269531 C 45.75 71.414062 45.050781 71.660156 42.75 71.660156 L 40 71.660156 L 40 69.769531 C 40 68.726562 40.148438 67.679688 40.351562 67.53125 C 40.5 67.332031 42.300781 67.183594 44.351562 67.183594 C 47.300781 67.183594 48.101562 67.332031 48.351562 68.027344 Z M 116.148438 76.488281 C 114.148438 76.589844 110.800781 76.589844 108.648438 76.488281 C 106.5 76.4375 108.148438 76.339844 112.25 76.339844 C 116.398438 76.339844 118.148438 76.4375 116.148438 76.488281 Z M 19.5 81.664062 C 19.5 83.007812 19.351562 83.15625 18.148438 83.007812 C 17.050781 82.910156 16.699219 82.558594 16.601562 81.464844 C 16.449219 80.269531 16.601562 80.121094 17.949219 80.121094 C 19.351562 80.121094 19.5 80.269531 19.5 81.664062 Z M 72.898438 83.355469 C 72.101562 84.152344 71.300781 84.253906 66 84.054688 C 63.648438 84.003906 62.601562 83.855469 63.648438 83.753906 C 64.949219 83.605469 65.5 83.304688 65.550781 82.710938 C 65.601562 81.960938 65.648438 81.960938 65.851562 82.710938 C 66.050781 83.40625 66.601562 83.605469 68.75 83.605469 C 72.25 83.605469 73 83.257812 73.050781 81.664062 C 73.148438 80.421875 73.148438 80.421875 73.351562 81.566406 C 73.5 82.210938 73.300781 83.007812 72.898438 83.355469 Z M 107.851562 81.914062 C 107.699219 82.0625 107.25 82.113281 106.898438 81.960938 C 106.5 81.8125 106.648438 81.664062 107.199219 81.664062 C 107.75 81.613281 108.050781 81.765625 107.851562 81.914062 Z M 96.75 89.328125 L 96.75 92.3125 L 89.25 92.3125 L 89.101562 89.625 C 89 87.835938 89.148438 86.789062 89.601562 86.492188 C 89.949219 86.292969 91.699219 86.144531 93.5 86.191406 L 96.75 86.34375 Z M 62.300781 91.070312 L 62.351562 93.808594 L 62.148438 91.21875 L 61.949219 88.632812 L 58.851562 88.433594 L 55.75 88.234375 L 59 88.28125 L 62.25 88.332031 Z M 50.75 89.824219 C 49.601562 90.222656 46.5 90.324219 46.5 89.976562 C 46.5 89.777344 47.550781 89.578125 48.898438 89.625 C 50.199219 89.625 51.050781 89.726562 50.75 89.824219 Z M 27.5 95.546875 L 27.5 99.480469 L 25.851562 99.777344 C 24.949219 99.976562 23.398438 100.027344 22.449219 99.929688 L 20.75 99.777344 L 20.601562 96.34375 C 20.5 94.453125 20.550781 92.613281 20.699219 92.214844 C 20.898438 91.765625 21.949219 91.566406 24.25 91.566406 L 27.5 91.566406 Z M 69.699219 91.964844 C 69.800781 92.164062 69.75 92.664062 69.5 93.058594 C 69.148438 93.609375 68.898438 93.65625 68.449219 93.210938 C 68.148438 92.910156 68.050781 92.414062 68.199219 92.113281 C 68.601562 91.46875 69.351562 91.417969 69.699219 91.964844 Z M 107.199219 95.597656 C 110.800781 98.433594 106.601562 104.207031 102.5 102.019531 C 102 101.769531 101.300781 100.773438 101 99.828125 C 100.550781 98.433594 100.601562 97.835938 101.199219 96.644531 C 102.398438 94.304688 104.949219 93.855469 107.199219 95.597656 Z M 50.199219 100.675781 C 50.800781 101.121094 51.050781 101.820312 50.898438 103.011719 L 50.75 104.753906 L 46.398438 104.90625 L 42 105.054688 L 42 102.863281 C 42 101.667969 42.148438 100.523438 42.351562 100.375 C 42.949219 99.777344 49.300781 100.027344 50.199219 100.675781 Z M 89.398438 105.351562 C 88.898438 105.453125 88 105.453125 87.398438 105.351562 C 86.75 105.253906 87.148438 105.152344 88.25 105.152344 C 89.351562 105.101562 89.851562 105.203125 89.398438 105.351562 Z M 100.5 107.042969 C 100.5 107.742188 100.148438 107.988281 99.050781 107.988281 C 97.449219 107.988281 96.75 107.34375 97.148438 106.296875 C 97.550781 105.253906 100.5 105.898438 100.5 107.042969 Z M 100.5 107.042969 "/>
<path style=" stroke:none;fill-rule:nonzero;fill:rgb(0%,0%,0%);fill-opacity:1;" d="M 103 23.988281 C 103 24.234375 103.800781 24.386719 104.75 24.386719 C 105.699219 24.386719 106.5 24.234375 106.5 23.988281 C 106.5 23.789062 105.699219 23.636719 104.75 23.636719 C 103.800781 23.636719 103 23.789062 103 23.988281 Z M 103 23.988281 "/>
<path style=" stroke:none;fill-rule:nonzero;fill:rgb(0%,0%,0%);fill-opacity:1;" d="M 23.550781 23.191406 C 23.550781 23.738281 23.699219 23.886719 23.851562 23.488281 C 24 23.140625 23.949219 22.691406 23.800781 22.542969 C 23.648438 22.34375 23.5 22.644531 23.550781 23.191406 Z M 23.550781 23.191406 "/>
<path style=" stroke:none;fill-rule:nonzero;fill:rgb(0%,0%,0%);fill-opacity:1;" d="M 15 38.070312 C 15 41.15625 15.050781 41.304688 16.148438 41.304688 C 17.398438 41.304688 17.398438 41.207031 17.050781 35.433594 C 17 35.132812 16.550781 34.835938 16 34.835938 C 15.101562 34.835938 15 35.183594 15 38.070312 Z M 16.5 39.066406 C 16.5 39.464844 16.300781 39.8125 16 39.8125 C 15.75 39.8125 15.5 39.464844 15.5 39.066406 C 15.5 38.667969 15.75 38.320312 16 38.320312 C 16.300781 38.320312 16.5 38.667969 16.5 39.066406 Z M 16.5 39.066406 "/>
<path style=" stroke:none;fill-rule:nonzero;fill:rgb(0%,0%,0%);fill-opacity:1;" d="M 90.75 87.585938 C 90.550781 87.886719 90.199219 87.984375 89.949219 87.835938 C 89.699219 87.636719 89.5 88.480469 89.5 89.726562 L 89.5 91.914062 L 93 92.015625 L 96.5 92.113281 L 96.5 87.089844 L 93.800781 87.089844 C 92.300781 87.089844 90.898438 87.335938 90.75 87.585938 Z M 94.25 90.074219 C 94.449219 90.074219 94.398438 89.578125 94.25 89.03125 C 94 88.234375 94.101562 88.035156 94.550781 88.183594 C 94.949219 88.332031 95.25 88.832031 95.25 89.378906 C 95.25 90.671875 93.148438 90.921875 92.25 89.726562 C 91 88.132812 91.398438 87.335938 92.75 88.78125 C 93.398438 89.476562 94.101562 90.074219 94.25 90.074219 Z M 94.25 90.074219 "/>
<path style=" stroke:none;fill-rule:nonzero;fill:rgb(0%,0%,0%);fill-opacity:1;" d="M 21 95.796875 L 21 99.03125 L 25.5 99.03125 L 25.449219 95.648438 C 25.449219 93.808594 25.300781 92.613281 25.148438 92.910156 C 24.851562 93.65625 22 93.808594 22 93.058594 C 22 92.761719 21.800781 92.5625 21.5 92.5625 C 21.199219 92.5625 21 93.957031 21 95.796875 Z M 24.5 94.554688 C 24.5 94.800781 23.949219 95.050781 23.300781 95.050781 C 22.601562 95.050781 21.898438 94.800781 21.75 94.554688 C 21.550781 94.253906 22.101562 94.054688 22.949219 94.054688 C 23.800781 94.054688 24.5 94.253906 24.5 94.554688 Z M 24.148438 95.898438 C 23.800781 95.996094 23.101562 95.996094 22.648438 95.898438 C 22.148438 95.746094 22.449219 95.648438 23.25 95.648438 C 24.101562 95.648438 24.449219 95.746094 24.148438 95.898438 Z M 24.25 97.539062 C 24.101562 97.789062 24.300781 98.085938 24.601562 98.1875 C 24.949219 98.335938 24.5 98.484375 23.601562 98.484375 C 22.601562 98.535156 22.050781 98.335938 22.25 98.035156 C 22.398438 97.738281 22.300781 97.539062 22 97.539062 C 21.699219 97.539062 21.550781 97.339844 21.699219 97.089844 C 21.851562 96.890625 22.550781 96.792969 23.25 96.890625 C 23.898438 97.042969 24.398438 97.339844 24.25 97.539062 Z M 24.25 97.539062 "/>
</g>
</svg>
