<?xml version="1.0" standalone="no"?>
<!DOCTYPE svg PUBLIC "-//W3C//DTD SVG 20010904//EN"
 "http://www.w3.org/TR/2001/REC-SVG-20010904/DTD/svg10.dtd">
<svg version="1.0" xmlns="http://www.w3.org/2000/svg"
 width="256.000000pt" height="255.000000pt" viewBox="0 0 256.000000 255.000000"
 preserveAspectRatio="xMidYMid meet">

<g transform="translate(0.000000,255.000000) scale(0.100000,-0.100000)"
fill="#000000" stroke="none">
<path d="M0 1275 l0 -1275 1280 0 1280 0 0 1275 0 1275 -1280 0 -1280 0 0
-1275z m2294 1231 c95 -29 165 -97 209 -206 l22 -55 3 -880 c1 -538 -1 -915
-7 -969 -13 -114 -48 -190 -96 -210 -28 -12 -101 -19 -173 -17 -13 1 -31 -3
-41 -9 -22 -11 -77 3 -73 19 1 7 -11 6 -35 -5 -108 -46 -90 -45 -820 -44 -651
0 -694 2 -746 19 -30 11 -64 24 -74 30 -13 7 -23 7 -30 0 -7 -7 -19 -6 -36 2
-20 9 -33 9 -51 1 -13 -6 -27 -8 -30 -4 -7 7 -24 10 -81 17 -22 3 -63 13 -92
24 -28 10 -54 17 -56 14 -3 -2 -16 22 -29 54 l-23 58 -3 929 c-3 1029 -5 996
62 1100 38 59 106 112 170 132 64 20 1964 20 2030 0z"/>
<path d="M543 2415 c-70 -19 -125 -48 -195 -102 -64 -48 -134 -133 -119 -142
5 -4 -9 -44 -32 -90 l-42 -84 -5 -216 c-3 -119 -5 -416 -4 -661 1 -431 2 -447
23 -510 55 -161 170 -299 305 -366 l80 -39 717 -3 718 -2 65 24 c156 59 280
190 335 353 17 51 21 87 21 192 l0 130 -107 4 -108 3 107 2 108 2 -3 548 -2
547 -35 70 c-19 39 -36 74 -38 79 -3 5 3 6 12 3 16 -6 15 -4 -1 25 -31 54
-136 152 -198 185 -124 65 -98 63 -859 62 -562 0 -701 -3 -743 -14z m1621
-251 c44 -43 -9 -134 -77 -134 -49 0 -87 40 -87 91 0 48 17 58 92 59 38 0 62
-5 72 -16z m-1085 -26 c8 -21 8 -35 1 -42 -5 -5 -10 -21 -11 -35 -1 -24 -2
-23 -10 7 -5 17 -14 32 -19 32 -13 0 -13 12 0 44 13 35 26 33 39 -6z m-501
-49 c2 -29 -2 -49 -10 -55 -7 -5 -51 -6 -98 -3 -47 3 -79 6 -72 7 7 1 12 18
12 45 0 24 3 47 7 51 4 4 41 5 83 4 l75 -3 3 -46z m940 -58 l-3 -46 -95 0 -95
0 -3 46 -3 46 101 0 101 -1 -3 -45z m350 42 c-26 -2 -71 -2 -100 0 -29 2 -8 3
47 3 55 0 79 -1 53 -3z m-166 -30 c-3 -16 -7 -22 -10 -15 -4 13 4 42 11 42 2
0 2 -12 -1 -27z m-1360 -68 c-2 -36 -7 -65 -10 -65 -7 0 -4 95 3 118 8 24 10
11 7 -53z m526 58 c-10 -2 -26 -2 -35 0 -10 3 -2 5 17 5 19 0 27 -2 18 -5z
m80 0 c-10 -2 -28 -2 -40 0 -13 2 -5 4 17 4 22 1 32 -1 23 -4z m1162 -23 c0
-5 -11 -10 -24 -10 -14 0 -28 5 -31 10 -4 6 7 10 24 10 17 0 31 -4 31 -10z
m-293 -50 c1 -21 1 -22 -3 -3 -5 19 -13 23 -60 26 l-54 4 57 -1 c54 -1 58 -3
60 -26z m-1350 -72 c-2 -18 -4 -4 -4 32 0 36 2 50 4 33 2 -18 2 -48 0 -65z
m950 -55 c-2 -16 -4 -3 -4 27 0 30 2 43 4 28 2 -16 2 -40 0 -55z m-1059 -45
l-3 -83 -35 0 -35 0 -3 83 -3 82 41 0 41 0 -3 -82z m1806 43 c20 -17 21 -60 1
-67 -21 -8 -45 14 -45 42 0 25 -18 30 -140 38 -30 2 -5 3 56 2 77 -1 116 -5
128 -15z m-1051 -32 c38 -20 247 -213 247 -230 0 -4 -24 -33 -53 -64 l-53 -58
-113 123 c-128 142 -143 154 -175 146 -66 -16 -170 -201 -207 -366 -25 -115
-31 -289 -10 -337 49 -117 221 16 568 438 214 260 362 353 510 319 111 -25
163 -113 163 -279 0 -302 -137 -559 -285 -536 -22 3 -61 20 -87 36 -52 34
-164 148 -204 209 l-26 39 47 65 48 64 45 -56 c77 -97 164 -181 194 -187 37
-9 74 15 92 59 51 122 68 367 31 441 -11 22 -32 46 -46 54 -23 13 -30 12 -71
-7 -78 -38 -169 -141 -399 -452 -186 -250 -264 -326 -386 -370 -188 -68 -337
43 -350 261 -11 180 69 451 175 592 90 118 225 156 345 96z m-590 -42 l52 -3
-57 -2 c-54 -2 -58 -1 -57 21 1 16 3 17 6 5 3 -13 18 -18 56 -21z m1590 -107
c5 -19 14 -20 143 -20 75 0 135 -2 133 -4 -2 -2 -74 -6 -159 -7 -143 -3 -155
-1 -158 15 -2 10 2 22 10 27 20 13 25 11 31 -11z m-1660 -57 c-29 -2 -77 -2
-105 0 -29 2 -6 3 52 3 58 0 81 -1 53 -3z m-56 -41 c6 -4 -26 -6 -70 -4 -126
4 -142 9 -37 10 52 1 100 -2 107 -6z m121 -69 c-14 -14 -20 -14 -33 -3 -14 12
-14 15 2 32 15 17 18 17 32 3 14 -13 14 -17 -1 -32z m1675 30 c-7 -2 -21 -2
-30 0 -10 3 -4 5 12 5 17 0 24 -2 18 -5z m-1836 -34 c1 -12 1 -20 0 -18 -2 2
-9 12 -16 22 -11 14 -11 17 1 17 7 0 14 -10 15 -21z m66 14 c-7 -2 -21 -2 -30
0 -10 3 -4 5 12 5 17 0 24 -2 18 -5z m1850 -160 c-23 -2 -64 -2 -90 0 -26 2
-7 3 42 3 50 0 71 -1 48 -3z m-1934 -67 c9 -10 8 -16 -4 -26 -21 -17 -51 6
-34 26 6 8 15 14 19 14 4 0 13 -6 19 -14z m1797 -11 c4 -8 3 -31 0 -50 -6 -30
-11 -35 -35 -35 -22 0 -30 6 -35 25 -4 14 -4 36 0 50 5 20 13 25 35 25 17 0
32 -6 35 -15z m-1771 -34 c3 -5 1 -13 -5 -16 -15 -9 -43 3 -35 15 8 13 32 13
40 1z m1949 -17 c8 -20 1 -30 -24 -37 -17 -4 -20 0 -20 24 0 22 5 29 19 29 10
0 22 -7 25 -16z m-1347 -21 c4 -11 -4 -26 -25 -45 -27 -23 -41 -28 -87 -28
l-55 0 0 38 c0 21 3 42 7 45 3 4 39 7 80 7 59 0 75 -3 80 -17z m1356 -170
c-40 -2 -107 -2 -150 0 -43 1 -10 3 72 3 83 0 118 -2 78 -3z m-1933 -104 c0
-27 -3 -30 -27 -27 -22 2 -29 9 -31 31 -3 24 0 27 27 27 28 0 31 -3 31 -31z
m1068 -34 c-16 -16 -32 -18 -138 -14 -47 1 -68 4 -47 6 26 3 37 9 38 21 1 15
2 15 6 0 4 -14 15 -18 58 -18 70 0 85 7 86 39 2 25 2 25 6 2 3 -13 -1 -29 -9
-36z m699 29 c-3 -3 -12 -4 -19 -1 -8 3 -5 6 6 6 11 1 17 -2 13 -5z m-222
-149 l0 -60 -75 0 -75 0 -3 54 c-2 36 1 57 10 63 7 4 42 7 78 6 l65 -3 0 -60z
m-689 -35 l1 -55 -4 52 -4 52 -62 4 -62 4 65 -1 65 -1 1 -55z m-231 25 c-23
-8 -85 -10 -85 -3 0 4 21 8 48 7 26 0 43 -2 37 -4z m-465 -115 l0 -79 -33 -6
c-18 -4 -49 -5 -68 -3 l-34 3 -3 69 c-2 38 -1 75 2 83 4 9 25 13 71 13 l65 0
0 -80z m844 72 c2 -4 1 -14 -4 -22 -7 -11 -12 -12 -21 -3 -6 6 -8 16 -5 22 8
13 23 14 30 3z m750 -73 c72 -57 -12 -173 -94 -129 -10 5 -24 25 -30 44 -9 28
-8 40 4 64 24 47 75 56 120 21z m-1140 -102 c12 -9 17 -23 14 -47 l-3 -35 -87
-3 -88 -3 0 44 c0 24 3 47 7 50 12 12 139 7 157 -6z m784 -94 c-10 -2 -28 -2
-40 0 -13 2 -5 4 17 4 22 1 32 -1 23 -4z m222 -34 c0 -14 -7 -19 -29 -19 -32
0 -46 13 -38 34 8 21 67 8 67 -15z"/>
<path d="M2060 2068 c0 -5 16 -8 35 -8 19 0 35 3 35 8 0 4 -16 7 -35 7 -19 0
-35 -3 -35 -7z"/>
<path d="M471 2084 c0 -11 3 -14 6 -6 3 7 2 16 -1 19 -3 4 -6 -2 -5 -13z"/>
<path d="M300 1785 c0 -62 1 -65 23 -65 25 0 25 2 18 118 -1 6 -10 12 -21 12
-18 0 -20 -7 -20 -65z m30 -20 c0 -8 -4 -15 -10 -15 -5 0 -10 7 -10 15 0 8 5
15 10 15 6 0 10 -7 10 -15z"/>
<path d="M1815 790 c-4 -6 -11 -8 -16 -5 -5 4 -9 -13 -9 -38 l0 -44 70 -2 70
-2 0 51 0 50 -54 0 c-30 0 -58 -5 -61 -10z m70 -50 c4 0 3 10 0 21 -5 16 -3
20 6 17 8 -3 14 -13 14 -24 0 -26 -42 -31 -60 -7 -25 32 -17 48 10 19 13 -14
27 -26 30 -26z"/>
<path d="M420 625 l0 -65 45 0 45 0 -1 68 c0 37 -3 61 -6 55 -6 -15 -63 -18
-63 -3 0 6 -4 10 -10 10 -6 0 -10 -28 -10 -65z m70 25 c0 -5 -11 -10 -24 -10
-14 0 -28 5 -31 10 -4 6 7 10 24 10 17 0 31 -4 31 -10z m-7 -27 c-7 -2 -21 -2
-30 0 -10 3 -4 5 12 5 17 0 24 -2 18 -5z m2 -33 c-3 -5 1 -11 7 -13 7 -3 -2
-6 -20 -6 -20 -1 -31 3 -27 9 3 6 1 10 -5 10 -6 0 -9 4 -6 9 3 4 17 6 31 4 13
-3 23 -9 20 -13z"/>
</g>
</svg>
